<svg id="icons" enable-background="new 0 0 64 64" height="512" viewBox="0 0 64 64" width="512" xmlns="http://www.w3.org/2000/svg"><path d="m38.98 23h12.02v11.99h-12.02z" fill="#ffce54"/><path d="m63 15h-12-12.02-14-11.98-12l5-4h52z" fill="#f6bb42"/><g fill="#ffce54"><path d="m13 15h11.98v8h-11.98z"/><path d="m1 47h12v6h-12z"/><path d="m51 23h12v11.99h-12z"/><path d="m51 34.99h12v6.01h-12z"/><path d="m63 47v6h-12v-6h11.99z"/><path d="m13 34.99h11.98v6.01h-11.98z"/><path d="m1 41h12v6h-12z"/><path d="m13 41h11.98v6h-11.98z"/><path d="m1 15h12v8h-12z"/><path d="m38.98 34.99h12.02v6.01h-12.02z"/><path d="m51 41v6h-11.989-.031v-6z"/><path d="m38.98 15h12.02v8h-12.02z"/><path d="m51 47v6h-12.02v-6h.031z"/><path d="m51 15h12v8h-12z"/><path d="m1 34.99h12v6.01h-12z"/><path d="m13 23h11.98v11.99h-11.98z"/><path d="m63 41v6h-.01-11.99v-6z"/><path d="m1 23h12v11.99h-12z"/><path d="m13 47h11.98v6h-11.98z"/></g><path d="m24.98 15h14v8h-14z" fill="#e6e9ed"/><path d="m27.98 26h8v6h-8z" fill="#5d9cec"/><path d="m27.98 32h8v-6h-8zm11-9v11.99h-14v-11.99z" fill="#656d78"/><path d="m24.98 34.99h14v6.01h-14z" fill="#545c66"/><path d="m38.98 47v6h-14v-6-6h14z" fill="#e6e9ed"/><path d="m63 54.002h-62c-.553 0-1-.447-1-1v-38c0-.553.447-1 1-1h62c.553 0 1 .447 1 1v38c0 .553-.447 1-1 1zm-61-2h60v-36h-60z"/><path d="m24.985 54.002c-.553 0-1-.447-1-1v-38c0-.553.447-1 1-1s1 .447 1 1v38c0 .553-.447 1-1 1z"/><path d="m38.984 54.002c-.553 0-1-.447-1-1v-38c0-.553.447-1 1-1s1 .447 1 1v38c0 .553-.447 1-1 1z"/><path d="m35.984 32.998h-8c-.553 0-1-.447-1-1v-5.998c0-.553.447-1 1-1h8c.553 0 1 .447 1 1v5.998c0 .553-.447 1-1 1zm-7-2h6v-3.998h-6z"/><path d="m38.984 42.004h-13.999c-.553 0-1-.447-1-1s.447-1 1-1h13.999c.553 0 1 .447 1 1s-.447 1-1 1z"/><path d="m35.984 38.994h-1.985c-.553 0-1-.447-1-1s.447-1 1-1h1.985c.553 0 1 .447 1 1s-.447 1-1 1z"/><path d="m28.031 39.004c-.553 0-1.005-.447-1.005-1s.442-1 .994-1h.011c.552 0 1 .447 1 1s-.448 1-1 1z"/><path d="m4.03 19.002c-.553 0-1.005-.447-1.005-1s.442-1 .994-1h.011c.552 0 1 .447 1 1s-.448 1-1 1z"/><path d="m16.03 19.002c-.553 0-1.005-.447-1.005-1s.442-1 .994-1h.011c.552 0 1 .447 1 1s-.448 1-1 1z"/><path d="m54.03 19.002c-.553 0-1.005-.447-1.005-1s.442-1 .994-1h.011c.552 0 1 .447 1 1s-.448 1-1 1z"/><path d="m42.03 19.002c-.553 0-1.005-.447-1.005-1s.442-1 .994-1h.011c.552 0 1 .447 1 1s-.448 1-1 1z"/><path d="m4.03 27.01c-.553 0-1.005-.447-1.005-1s.442-1 .994-1h.011c.552 0 1 .447 1 1s-.448 1-1 1z"/><path d="m16.03 27.01c-.553 0-1.005-.447-1.005-1s.442-1 .994-1h.011c.552 0 1 .447 1 1s-.448 1-1 1z"/><path d="m54.03 27.01c-.553 0-1.005-.447-1.005-1s.442-1 .994-1h.011c.552 0 1 .447 1 1s-.448 1-1 1z"/><path d="m42.03 27.01c-.553 0-1.005-.447-1.005-1s.442-1 .994-1h.011c.552 0 1 .447 1 1s-.448 1-1 1z"/><path d="m4.03 39.021c-.553 0-1.005-.447-1.005-1s.442-1 .994-1h.011c.552 0 1 .447 1 1s-.448 1-1 1z"/><path d="m16.03 39.021c-.553 0-1.005-.447-1.005-1s.442-1 .994-1h.011c.552 0 1 .447 1 1s-.448 1-1 1z"/><path d="m54.03 39.021c-.553 0-1.005-.447-1.005-1s.442-1 .994-1h.011c.552 0 1 .447 1 1s-.448 1-1 1z"/><path d="m42.03 39.021c-.553 0-1.005-.447-1.005-1s.442-1 .994-1h.011c.552 0 1 .447 1 1s-.448 1-1 1z"/><path d="m4.03 45.027c-.553 0-1.005-.447-1.005-1s.442-1 .994-1h.011c.552 0 1 .447 1 1s-.448 1-1 1z"/><path d="m16.03 45.027c-.553 0-1.005-.447-1.005-1s.442-1 .994-1h.011c.552 0 1 .447 1 1s-.448 1-1 1z"/><path d="m54.03 45.027c-.553 0-1.005-.447-1.005-1s.442-1 .994-1h.011c.552 0 1 .447 1 1s-.448 1-1 1z"/><path d="m42.03 45.027c-.553 0-1.005-.447-1.005-1s.442-1 .994-1h.011c.552 0 1 .447 1 1s-.448 1-1 1z"/><path d="m4.03 51.033c-.553 0-1.005-.447-1.005-1s.442-1 .994-1h.011c.552 0 1 .447 1 1s-.448 1-1 1z"/><path d="m16.03 51.033c-.553 0-1.005-.447-1.005-1s.442-1 .994-1h.011c.552 0 1 .447 1 1s-.448 1-1 1z"/><path d="m54.03 51.033c-.553 0-1.005-.447-1.005-1s.442-1 .994-1h.011c.552 0 1 .447 1 1s-.448 1-1 1z"/><path d="m42.03 51.033c-.553 0-1.005-.447-1.005-1s.442-1 .994-1h.011c.552 0 1 .447 1 1s-.448 1-1 1z"/><path d="m31.034 39.004c-.553 0-1.005-.447-1.005-1s.442-1 .994-1h.011c.552 0 1 .447 1 1s-.448 1-1 1z"/><path d="m63 24h-62c-.553 0-1-.447-1-1s.447-1 1-1h62c.553 0 1 .447 1 1s-.447 1-1 1z"/><path d="m63 35.986h-62c-.553 0-1-.447-1-1s.447-1 1-1h62c.553 0 1 .447 1 1s-.447 1-1 1z"/><path d="m63 42.004h-62c-.553 0-1-.447-1-1s.447-1 1-1h62c.553 0 1 .447 1 1s-.447 1-1 1z"/><path d="m24.985 48.002h-23.985c-.553 0-1-.447-1-1s.447-1 1-1h23.985c.553 0 1 .447 1 1s-.447 1-1 1z"/><path d="m62.993 48.002h-23.985c-.553 0-1-.447-1-1s.447-1 1-1h23.985c.553 0 1 .447 1 1s-.447 1-1 1z"/><path d="m13.001 54.002c-.553 0-1-.447-1-1v-38c0-.553.447-1 1-1s1 .447 1 1v38c0 .553-.447 1-1 1z"/><path d="m51 54.002c-.553 0-1-.447-1-1v-38c0-.553.447-1 1-1s1 .447 1 1v38c0 .553-.447 1-1 1z"/><path d="m1.001 16.002c-.294 0-.584-.128-.781-.375-.346-.431-.275-1.061.155-1.405l5.001-4.004c.433-.348 1.061-.276 1.405.155.346.431.275 1.061-.155 1.405l-5.001 4.004c-.185.149-.405.22-.624.22z"/><path d="m62.999 16.002c-.219 0-.439-.071-.624-.22l-5.002-4.004c-.431-.345-.501-.974-.155-1.405.344-.431.974-.502 1.405-.155l5.002 4.004c.431.345.501.974.155 1.405-.197.247-.487.375-.781.375z"/><path d="m57.998 11.998h-51.997c-.553 0-1-.447-1-1s.447-1 1-1h51.997c.553 0 1 .447 1 1s-.447 1-1 1z"/></svg>