<svg id="Layer_1" height="512" viewBox="0 0 256 256" width="512" xmlns="http://www.w3.org/2000/svg"><g><g><g><path d="m80.935 73.13 20.84 82.45h96.47c2.68 0 5.05-1.73 5.88-4.27l25.38-78.18z" fill="#8ac3da"/></g></g><g><g><path d="m230.719 72.248c-.282-.388-.733-.618-1.214-.618h-148.57c-.463 0-.899.213-1.184.579-.284.365-.384.84-.27 1.289l20.841 82.45c.168.666.768 1.132 1.454 1.132h37.04c.828 0 1.5-.671 1.5-1.5s-.672-1.5-1.5-1.5h-35.872l-20.082-79.45h144.579l-24.741 76.214c-.633 1.936-2.423 3.236-4.454 3.236h-45.731c-.828 0-1.5.671-1.5 1.5s.672 1.5 1.5 1.5h45.731c3.333 0 6.269-2.131 7.307-5.307l25.38-78.18c.148-.457.068-.957-.214-1.345z" fill="#3a312a"/></g></g><g><g><path d="m121.111 88c-2.859 0-5.176 2.318-5.176 5.176v42.445c0 2.859 2.317 5.176 5.176 5.176s5.176-2.318 5.176-5.176v-42.445c0-2.858-2.317-5.176-5.176-5.176z" fill="#87796f"/></g></g><g><g><path d="m121.111 86.5c-3.682 0-6.677 2.995-6.677 6.676v42.445c0 3.681 2.995 6.676 6.677 6.676 3.681 0 6.676-2.995 6.676-6.676v-42.445c0-3.681-2.996-6.676-6.676-6.676zm3.676 49.122c0 2.027-1.649 3.676-3.676 3.676s-3.677-1.649-3.677-3.676v-42.446c0-2.027 1.649-3.676 3.677-3.676 2.026 0 3.676 1.649 3.676 3.676z" fill="#3a312a"/></g></g><g><g><path d="m154.183 88c-2.859 0-5.176 2.318-5.176 5.176v42.445c0 2.859 2.317 5.176 5.176 5.176s5.176-2.318 5.176-5.176v-42.445c.001-2.858-2.317-5.176-5.176-5.176z" fill="#87796f"/></g></g><g><g><path d="m154.183 86.5c-3.681 0-6.676 2.995-6.676 6.676v42.445c0 3.681 2.995 6.676 6.676 6.676 3.682 0 6.677-2.995 6.677-6.676v-42.445c0-3.681-2.995-6.676-6.677-6.676zm3.677 49.122c0 2.027-1.649 3.676-3.677 3.676-2.026 0-3.676-1.649-3.676-3.676v-42.446c0-2.027 1.649-3.676 3.676-3.676s3.677 1.649 3.677 3.676z" fill="#3a312a"/></g></g><g><g><path d="m187.256 88c-2.859 0-5.176 2.318-5.176 5.176v42.445c0 2.859 2.317 5.176 5.176 5.176s5.176-2.318 5.176-5.176v-42.445c0-2.858-2.317-5.176-5.176-5.176z" fill="#87796f"/></g></g><g><g><path d="m187.256 86.5c-3.682 0-6.677 2.995-6.677 6.676v42.445c0 3.681 2.995 6.676 6.677 6.676 3.681 0 6.676-2.995 6.676-6.676v-42.445c0-3.681-2.995-6.676-6.676-6.676zm3.676 49.122c0 2.027-1.649 3.676-3.676 3.676s-3.677-1.649-3.677-3.676v-42.446c0-2.027 1.649-3.676 3.677-3.676 2.026 0 3.676 1.649 3.676 3.676z" fill="#3a312a"/></g></g><g><g><ellipse cx="124.362" cy="214.106" fill="#87796f" rx="25.385" ry="25.385" transform="matrix(.507 -.862 .862 .507 -123.238 212.811)"/></g></g><g><g><path d="m124.362 187.221c-14.824 0-26.885 12.06-26.885 26.885 0 14.824 12.061 26.885 26.885 26.885s26.885-12.061 26.885-26.885-12.061-26.885-26.885-26.885zm0 50.77c-13.17 0-23.885-10.715-23.885-23.885s10.715-23.885 23.885-23.885 23.885 10.715 23.885 23.885-10.715 23.885-23.885 23.885z" fill="#3a312a"/></g></g><g><g><path d="m124.362 203.721c-5.735 0-10.385 4.65-10.385 10.385s4.649 10.385 10.385 10.385c5.735 0 10.385-4.65 10.385-10.385s-4.65-10.385-10.385-10.385z" fill="#f7e3c7"/></g></g><g><g><path d="m124.362 202.221c-6.554 0-11.885 5.331-11.885 11.885 0 6.553 5.331 11.885 11.885 11.885s11.885-5.332 11.885-11.885-5.332-11.885-11.885-11.885zm0 20.77c-4.899 0-8.885-3.986-8.885-8.885s3.985-8.885 8.885-8.885 8.885 3.986 8.885 8.885-3.986 8.885-8.885 8.885z" fill="#3a312a"/></g></g><g><g><ellipse cx="188.781" cy="214.106" fill="#87796f" rx="25.385" ry="25.385" transform="matrix(.383 -.924 .924 .383 -81.27 306.582)"/></g></g><g><g><path d="m188.781 187.221c-14.824 0-26.885 12.06-26.885 26.885 0 14.824 12.061 26.885 26.885 26.885s26.885-12.061 26.885-26.885c-.001-14.824-12.061-26.885-26.885-26.885zm0 50.77c-13.17 0-23.885-10.715-23.885-23.885s10.715-23.885 23.885-23.885 23.885 10.715 23.885 23.885c-.001 13.17-10.715 23.885-23.885 23.885z" fill="#3a312a"/></g></g><g><g><path d="m188.781 203.721c-5.735 0-10.385 4.65-10.385 10.385s4.65 10.385 10.385 10.385 10.385-4.65 10.385-10.385c-.001-5.735-4.65-10.385-10.385-10.385z" fill="#f7e3c7"/></g></g><g><g><path d="m188.781 202.221c-6.554 0-11.885 5.331-11.885 11.885 0 6.553 5.331 11.885 11.885 11.885s11.885-5.332 11.885-11.885c-.001-6.553-5.331-11.885-11.885-11.885zm0 20.77c-4.9 0-8.885-3.986-8.885-8.885s3.985-8.885 8.885-8.885c4.899 0 8.885 3.986 8.885 8.885-.001 4.899-3.986 8.885-8.885 8.885z" fill="#3a312a"/></g></g><g><g><path d="m50.411 93.193c-.974 11.564-13.024 13.389-13.024 13.389 10.347.487 12.925 14.059 12.925 14.059.221-9.677 13.321-14.202 13.321-14.202-9.814-.587-13.222-13.246-13.222-13.246z" fill="#d5dc57"/></g></g><g><g><path d="m63.723 104.942c-8.604-.514-11.833-12.024-11.864-12.14-.191-.702-.848-1.16-1.584-1.102-.725.066-1.298.642-1.359 1.367-.859 10.215-11.312 11.963-11.754 12.032-.763.115-1.313.79-1.273 1.561.04.77.657 1.384 1.428 1.421 9.028.425 11.499 12.719 11.522 12.843.138.711.76 1.217 1.473 1.217.042 0 .084-.002.126-.005.765-.064 1.357-.693 1.375-1.459.193-8.509 12.191-12.777 12.312-12.819.676-.235 1.092-.914.994-1.622-.099-.71-.682-1.251-1.396-1.294zm-13.566 10.346c-1.356-3.13-3.709-6.907-7.588-8.876 2.932-1.405 6.409-3.914 8.202-8.273 1.552 3.071 4.2 6.88 8.335 8.722-3.008 1.64-6.923 4.406-8.949 8.427z" fill="#3a312a"/></g></g><g><g><path d="m28.713 110.174c-.689 8.179-9.213 9.47-9.213 9.47 7.318.344 9.142 9.944 9.142 9.944.156-6.845 9.422-10.045 9.422-10.045-6.941-.415-9.351-9.369-9.351-9.369z" fill="#d5dc57"/></g></g><g><g><path d="m38.154 118.045c-5.766-.345-7.972-8.185-7.994-8.264-.19-.702-.864-1.162-1.581-1.102-.726.065-1.3.643-1.361 1.368-.578 6.871-7.646 8.066-7.941 8.113-.763.115-1.313.79-1.274 1.561.04.77.657 1.384 1.428 1.421 6.034.284 7.723 8.644 7.738 8.726.136.712.759 1.22 1.473 1.22.041 0 .083-.002.125-.005.765-.063 1.358-.694 1.376-1.461.13-5.709 8.331-8.634 8.412-8.662.676-.234 1.093-.913.996-1.622-.098-.708-.683-1.25-1.397-1.293zm-9.585 6.796c-.924-1.886-2.34-3.947-4.446-5.28 1.855-1.041 3.697-2.63 4.87-4.916 1.058 1.874 2.654 3.954 4.941 5.223-1.85 1.101-3.989 2.74-5.365 4.973z" fill="#3a312a"/></g></g><g><g><path d="m28.713 83.516c-.689 8.179-9.213 9.471-9.213 9.471 7.318.344 9.142 9.944 9.142 9.944.156-6.845 9.422-10.045 9.422-10.045-6.941-.416-9.351-9.37-9.351-9.37z" fill="#d5dc57"/></g></g><g><g><path d="m38.154 91.388c-5.766-.345-7.972-8.186-7.994-8.265-.19-.702-.864-1.161-1.581-1.102-.726.065-1.3.643-1.361 1.368-.578 6.871-7.646 8.067-7.941 8.114-.763.115-1.313.79-1.274 1.561.04.77.657 1.384 1.428 1.421 6.034.284 7.723 8.644 7.738 8.726.136.713.759 1.22 1.473 1.22.041 0 .083-.002.125-.005.765-.063 1.358-.694 1.376-1.461.13-5.709 8.331-8.634 8.412-8.662.676-.234 1.093-.913.996-1.622-.098-.708-.683-1.25-1.397-1.293zm-9.585 6.795c-.924-1.885-2.34-3.947-4.446-5.28 1.855-1.041 3.697-2.629 4.87-4.916 1.058 1.873 2.654 3.954 4.941 5.223-1.85 1.102-3.989 2.741-5.365 4.973z" fill="#3a312a"/></g></g><g><g><path d="m230.525 55.85h-153.959l4.36 17.28h149.6c2.39 0 4.55-.97 6.11-2.53 1.57-1.56 2.53-3.72 2.53-6.11-.001-4.77-3.861-8.64-8.641-8.64z" fill="#d5dc57"/></g></g><g><g><path d="m230.526 54.35h-153.96c-.463 0-.899.213-1.184.578-.284.365-.384.84-.271 1.289l4.359 17.28c.168.666.767 1.133 1.454 1.133h149.601c2.71 0 5.256-1.055 7.167-2.966 1.917-1.905 2.973-4.452 2.973-7.174 0-5.591-4.548-10.14-10.139-10.14zm5.049 15.19c-1.348 1.348-3.141 2.09-5.049 2.09h-148.432l-3.603-14.28h152.034c3.937 0 7.14 3.203 7.14 7.14 0 1.917-.741 3.709-2.09 5.05z" fill="#3a312a"/></g></g><g><g><path d="m214.302 174.831h-107.668l-38.688-153.067c-.781-3.09-3.56-5.254-6.747-5.254h-37.405c-3.844 0-6.959 3.116-6.959 6.959s3.116 6.959 6.959 6.959h31.986l5.309 21.004 3.681 14.565 29.698 117.499c.781 3.09 3.56 5.254 6.747 5.254h113.087c3.844 0 6.959-3.116 6.959-6.959 0-3.844-3.115-6.96-6.959-6.96z" fill="#87796f"/></g></g><g><g><path d="m214.302 173.331h-106.5l-38.401-151.935c-.95-3.76-4.323-6.387-8.201-6.387h-37.407c-4.664 0-8.459 3.795-8.459 8.459s3.795 8.459 8.459 8.459h30.819l5.022 19.872c.203.802 1.016 1.291 1.821 1.086.804-.203 1.29-1.019 1.087-1.822l-5.307-21.003c-.168-.666-.768-1.132-1.454-1.132h-31.988c-3.01 0-5.459-2.449-5.459-5.459s2.449-5.459 5.459-5.459h37.407c2.503 0 4.679 1.695 5.293 4.122l38.688 153.068c.168.666.768 1.132 1.454 1.132h107.668c3.01 0 5.459 2.449 5.459 5.459s-2.449 5.46-5.459 5.46h-113.088c-2.503 0-4.68-1.695-5.293-4.122l-29.698-117.501c-.203-.802-1.016-1.291-1.821-1.086-.804.203-1.29 1.019-1.087 1.822l29.698 117.499c.949 3.761 4.322 6.387 8.201 6.387h113.087c4.664 0 8.459-3.795 8.459-8.46 0-4.664-3.795-8.459-8.459-8.459z" fill="#3a312a"/></g></g><g><g><path d="m212.446 74.63-18.51 57v3.99c0 2.38-1.25 4.47-3.13 5.65l-3.11 9.57c-.63 1.94-2.42 3.24-4.45 3.24h15c2.03 0 3.82-1.3 4.45-3.24l24.75-76.21z" fill="#6ca8bf"/></g></g><g><g><path d="m230.525 57.35h-15c3.94 0 7.14 3.2 7.14 7.14 0 1.92-.74 3.71-2.09 5.05-1.35 1.35-3.14 2.09-5.05 2.09h15c1.91 0 3.7-.74 5.05-2.09 1.35-1.34 2.09-3.13 2.09-5.05 0-3.94-3.199-7.14-7.14-7.14z" fill="#b9c239"/></g></g></g></svg>