<?xml version="1.0" encoding="utf-8"?>
<!-- Generator: Adobe Illustrator 22.0.1, SVG Export Plug-In . SVG Version: 6.00 Build 0)  -->
<svg xmlns="http://www.w3.org/2000/svg" xmlns:xlink="http://www.w3.org/1999/xlink" version="1.1" x="0px" y="0px" viewBox="0 0 256 256" style="enable-background:new 0 0 256 256;" xml:space="preserve" width="512" height="512">
<style type="text/css">
	.st0{display:none;}
	.st1{display:inline;}
	.st2{fill:none;stroke:#6B1D1D;stroke-width:0.5;stroke-miterlimit:10;}
	.st3{fill:#3A312A;}
	.st4{fill:#F16C7A;}
	.st5{fill:#D7E057;}
	.st6{fill:#87796F;}
	.st7{fill:#CE4E61;}
	.st8{fill-rule:evenodd;clip-rule:evenodd;fill:#D7E057;}
	.st9{fill-rule:evenodd;clip-rule:evenodd;fill:#FCE8CB;}
	.st10{fill:#B9BC39;}
	.st11{fill:#8AC6DD;}
	.st12{fill:#FCE8CB;}
	.st13{fill:#CCAE8B;}
	.st14{fill:#6B5B51;}
	.st15{fill:#68A8BC;}
	.st16{fill-rule:evenodd;clip-rule:evenodd;fill:#F16C7A;}
	.st17{fill:#F5978A;}
	.st18{fill-rule:evenodd;clip-rule:evenodd;fill:#8AC6DD;}
</style>
<g id="Layer_1" class="st0">
	<g class="st1">
		<g>
			<line class="st2" x1="0" y1="4.829" x2="256" y2="4.829"/>
			<line class="st2" x1="0" y1="16.56" x2="256" y2="16.56"/>
			<line class="st2" x1="0" y1="28.29" x2="256" y2="28.29"/>
			<line class="st2" x1="0" y1="40.021" x2="256" y2="40.021"/>
			<line class="st2" x1="0" y1="51.751" x2="256" y2="51.751"/>
			<line class="st2" x1="0" y1="63.482" x2="256" y2="63.482"/>
			<line class="st2" x1="0" y1="75.213" x2="256" y2="75.213"/>
			<line class="st2" x1="0" y1="86.943" x2="256" y2="86.943"/>
			<line class="st2" x1="0" y1="98.674" x2="256" y2="98.674"/>
			<line class="st2" x1="0" y1="110.404" x2="256" y2="110.404"/>
			<line class="st2" x1="0" y1="122.135" x2="256" y2="122.135"/>
			<line class="st2" x1="0" y1="133.865" x2="256" y2="133.865"/>
			<line class="st2" x1="0" y1="145.596" x2="256" y2="145.596"/>
			<line class="st2" x1="0" y1="157.326" x2="256" y2="157.326"/>
			<line class="st2" x1="0" y1="169.057" x2="256" y2="169.057"/>
			<line class="st2" x1="0" y1="180.788" x2="256" y2="180.788"/>
			<line class="st2" x1="0" y1="192.518" x2="256" y2="192.518"/>
			<line class="st2" x1="0" y1="204.249" x2="256" y2="204.249"/>
			<line class="st2" x1="0" y1="215.979" x2="256" y2="215.979"/>
			<line class="st2" x1="0" y1="227.71" x2="256" y2="227.71"/>
			<line class="st2" x1="0" y1="239.44" x2="256" y2="239.44"/>
			<line class="st2" x1="0" y1="251.171" x2="256" y2="251.171"/>
		</g>
		<g>
			<line class="st2" x1="251.171" y1="0" x2="251.171" y2="256"/>
			<line class="st2" x1="239.44" y1="0" x2="239.44" y2="256"/>
			<line class="st2" x1="227.71" y1="0" x2="227.71" y2="256"/>
			<line class="st2" x1="215.979" y1="0" x2="215.979" y2="256"/>
			<line class="st2" x1="204.249" y1="0" x2="204.249" y2="256"/>
			<line class="st2" x1="192.518" y1="0" x2="192.518" y2="256"/>
			<line class="st2" x1="180.787" y1="0" x2="180.787" y2="256"/>
			<line class="st2" x1="169.057" y1="0" x2="169.057" y2="256"/>
			<line class="st2" x1="157.326" y1="0" x2="157.326" y2="256"/>
			<line class="st2" x1="145.596" y1="0" x2="145.596" y2="256"/>
			<line class="st2" x1="133.865" y1="0" x2="133.865" y2="256"/>
			<line class="st2" x1="122.135" y1="0" x2="122.135" y2="256"/>
			<line class="st2" x1="110.404" y1="0" x2="110.404" y2="256"/>
			<line class="st2" x1="98.674" y1="0" x2="98.674" y2="256"/>
			<line class="st2" x1="86.943" y1="0" x2="86.943" y2="256"/>
			<line class="st2" x1="75.212" y1="0" x2="75.212" y2="256"/>
			<line class="st2" x1="63.482" y1="0" x2="63.482" y2="256"/>
			<line class="st2" x1="51.751" y1="0" x2="51.751" y2="256"/>
			<line class="st2" x1="40.021" y1="0" x2="40.021" y2="256"/>
			<line class="st2" x1="28.29" y1="0" x2="28.29" y2="256"/>
			<line class="st2" x1="16.56" y1="0" x2="16.56" y2="256"/>
			<line class="st2" x1="4.829" y1="0" x2="4.829" y2="256"/>
		</g>
	</g>
</g>
<g id="Layer_2">
	<g>
		<g>
			<g>
				<path class="st12" d="M174.26,145.516h-17.001v-11.049c-4.702,3.26-9.568,5.183-14.289,5.183c-4.529,0-9.308-1.943-13.991-5.241      h-0.288v11.107h-17.011c-14.212,0-25.732,11.52-25.732,25.732v68.198h114.046v-68.198      C199.992,157.036,188.473,145.516,174.26,145.516z"/>
			</g>
		</g>
		<g>
			<g>
				<path class="st3" d="M174.26,144.016h-15.501v-9.549c0-0.558-0.31-1.07-0.804-1.329c-0.494-0.258-1.092-0.222-1.55,0.096      c-4.705,3.262-9.225,4.916-13.435,4.916c-4.031,0-8.448-1.671-13.127-4.967c-0.253-0.178-0.555-0.273-0.864-0.273h-0.289      c-0.829,0-1.5,0.671-1.5,1.5v9.607h-15.511c-15.016,0-27.232,12.216-27.232,27.232v68.198c0,0.829,0.671,1.5,1.5,1.5h114.046      c0.829,0,1.5-0.671,1.5-1.5v-68.198C201.493,156.232,189.276,144.016,174.26,144.016z M198.493,237.946H87.446v-66.698      c0-13.361,10.871-24.232,24.232-24.232h17.011c0.829,0,1.5-0.671,1.5-1.5v-8.508c4.452,2.75,8.742,4.142,12.78,4.142      c4.103,0,8.395-1.322,12.79-3.934v8.3c0,0.829,0.671,1.5,1.5,1.5h17.001c13.362,0,24.233,10.871,24.233,24.232V237.946z"/>
			</g>
		</g>
		<g>
			<g>
				<path class="st11" d="M174.26,145.508h-4.068l0.106,0.077l-17.684,23.454l-9.126-6.876l-9.126,6.876l-17.684-23.454l0.106-0.077      h-5.106c-14.213,0-25.732,11.52-25.732,25.732v68.207h114.046v-68.207C199.993,157.028,188.473,145.508,174.26,145.508z"/>
			</g>
		</g>
		<g>
			<g>
				<path class="st3" d="M174.26,144.008h-4.067c-0.65,0-1.227,0.419-1.427,1.038c-0.014,0.042-0.025,0.084-0.035,0.127      l-16.411,21.766l-7.928-5.974c-0.535-0.402-1.271-0.402-1.806,0l-7.928,5.973l-16.411-21.766      c-0.01-0.043-0.021-0.085-0.035-0.128c-0.201-0.618-0.777-1.036-1.427-1.036h-5.106c-15.016,0-27.232,12.216-27.232,27.232      v68.208c0,0.829,0.671,1.5,1.5,1.5h114.046c0.829,0,1.5-0.671,1.5-1.5v-68.208C201.493,156.225,189.276,144.008,174.26,144.008z       M198.493,237.948H87.447v-66.708c0-13.362,10.871-24.232,24.232-24.232h4.195l17.292,22.934c0.5,0.662,1.438,0.793,2.101,0.295      l8.223-6.196l8.223,6.196c0.661,0.498,1.601,0.366,2.101-0.295l17.292-22.934h3.156c13.362,0,24.232,10.871,24.232,24.232      V237.948z"/>
			</g>
		</g>
		<g>
			<g>
				<path class="st3" d="M174.26,144.008h-4.067c-0.65,0-1.227,0.419-1.427,1.038c-0.014,0.042-0.025,0.084-0.035,0.127      l-16.411,21.766l-7.928-5.974c-0.535-0.402-1.271-0.402-1.806,0l-7.928,5.973l-16.411-21.766      c-0.01-0.043-0.021-0.085-0.035-0.128c-0.201-0.618-0.777-1.036-1.427-1.036h-5.106c-15.016,0-27.232,12.216-27.232,27.232      v68.208c0,0.829,0.671,1.5,1.5,1.5h114.046c0.829,0,1.5-0.671,1.5-1.5v-68.208C201.493,156.225,189.276,144.008,174.26,144.008z       M198.493,237.948H87.447v-66.708c0-13.362,10.871-24.232,24.232-24.232h4.195l17.292,22.934c0.5,0.662,1.438,0.793,2.101,0.295      l8.223-6.196l8.223,6.196c0.661,0.498,1.601,0.366,2.101-0.295l17.292-22.934h3.156c13.362,0,24.232,10.871,24.232,24.232      V237.948z"/>
			</g>
		</g>
		<g>
			<g>
				<path class="st9" d="M98.783,71.601c-5.592,0-10.125,4.533-10.125,10.125c0,5.592,4.533,10.125,10.125,10.125      c5.592,0,10.125-4.533,10.125-10.125C108.909,76.134,104.375,71.601,98.783,71.601z"/>
			</g>
		</g>
		<g>
			<g>
				<path class="st3" d="M98.783,70.101c-6.41,0-11.625,5.215-11.625,11.625s5.215,11.625,11.625,11.625s11.625-5.215,11.625-11.625      S105.193,70.101,98.783,70.101z M98.783,90.352c-4.756,0-8.625-3.869-8.625-8.625c0-4.756,3.869-8.625,8.625-8.625      c4.756,0,8.625,3.869,8.625,8.625C107.409,86.482,103.54,90.352,98.783,90.352z"/>
			</g>
		</g>
		<g>
			<g>
				<path class="st9" d="M187.159,71.601c-5.592,0-10.125,4.533-10.125,10.125c0,5.592,4.533,10.125,10.125,10.125      c5.592,0,10.125-4.533,10.125-10.125C197.284,76.134,192.75,71.601,187.159,71.601z"/>
			</g>
		</g>
		<g>
			<g>
				<path class="st3" d="M187.159,70.101c-6.41,0-11.625,5.215-11.625,11.625s5.215,11.625,11.625,11.625      s11.625-5.215,11.625-11.625S193.569,70.101,187.159,70.101z M187.159,90.352c-4.756,0-8.625-3.869-8.625-8.625      c0-4.756,3.869-8.625,8.625-8.625c4.756,0,8.625,3.869,8.625,8.625C195.784,86.482,191.915,90.352,187.159,90.352z"/>
			</g>
		</g>
		<g>
			<g>
				<path class="st12" d="M142.971,31.926c-24.79,0-44.886,20.096-44.886,44.886c0,24.79,24.83,62.84,44.886,62.84      c21.011,0,44.886-38.05,44.886-62.84C187.857,52.022,167.761,31.926,142.971,31.926z"/>
			</g>
		</g>
		<g>
			<g>
				<path class="st3" d="M142.971,30.426c-25.577,0-46.386,20.809-46.386,46.386c0,12.083,5.82,28.011,15.188,41.569      c9.853,14.259,21.516,22.771,31.198,22.771c21.952,0,46.386-38.351,46.386-64.34C189.357,51.234,168.548,30.426,142.971,30.426z       M142.971,138.152c-8.697,0-19.437-8.029-28.729-21.477c-9.041-13.083-14.656-28.357-14.656-39.863      c0-23.923,19.463-43.386,43.386-43.386c23.923,0,43.386,19.463,43.386,43.386C186.357,101.031,163.086,138.152,142.971,138.152z      "/>
			</g>
		</g>
		<g>
			<g>
				<path class="st3" d="M127.124,71.924c-2.419,0-4.381,1.962-4.381,4.381c0,2.42,1.961,4.381,4.381,4.381      c2.42,0,4.381-1.961,4.381-4.381C131.505,73.885,129.543,71.924,127.124,71.924z"/>
			</g>
		</g>
		<g>
			<g>
				<path class="st3" d="M158.818,71.924c-2.42,0-4.381,1.962-4.381,4.381c0,2.42,1.961,4.381,4.381,4.381      c2.42,0,4.381-1.961,4.381-4.381C163.199,73.885,161.238,71.924,158.818,71.924z"/>
			</g>
		</g>
		<g>
			<g>
				<path class="st17" d="M118.368,83.688c-4.168,0-7.547,2.526-7.547,5.642c0,3.116,3.379,5.642,7.547,5.642      c4.168,0,7.547-2.526,7.547-5.642C125.915,86.214,122.536,83.688,118.368,83.688z"/>
			</g>
		</g>
		<g>
			<g>
				<path class="st17" d="M167.574,83.688c-4.168,0-7.547,2.526-7.547,5.642c0,3.116,3.379,5.642,7.547,5.642      s7.547-2.526,7.547-5.642C175.121,86.214,171.742,83.688,167.574,83.688z"/>
			</g>
		</g>
		<g>
			<g>
				<path class="st6" d="M189.948,66.436c0-24.531-20.8-44.417-46.459-44.417c-25.658,0-46.458,19.886-46.458,44.418      c0,2.596,0.469,4.531,1.343,6.948c0.411,1.14,7.064-2.499,7.63-2.898c2.833-1.994,5.148-4.697,6.878-7.686      c0.715-1.243,1.312-2.507,1.792-3.772c1.531-4.035,5.692-15.262,9.917-14.382c5.666,1.181,12.087,1.848,18.899,1.848      c6.812,0,13.233-0.667,18.899-1.848c4.225-0.881,8.386,10.347,9.917,14.382c0.48,1.265,1.077,2.529,1.792,3.772      c2.858,4.943,7.685,9.65,13.558,10.506c0.015-0.284,0.373-0.38,0.64-0.477C190.217,72.131,189.948,67.977,189.948,66.436z"/>
			</g>
		</g>
		<g>
			<g>
				<path class="st3" d="M191.453,66.934l-0.005-0.498c0-25.319-21.514-45.917-47.959-45.917c-26.444,0-47.958,20.599-47.958,45.918      c0,2.91,0.548,5.01,1.432,7.457c0.191,0.528,0.619,0.932,1.174,1.107c0.184,0.058,0.395,0.084,0.629,0.084      c2.621,0,8.047-3.334,8.102-3.373c2.857-2.013,5.386-4.834,7.313-8.164c0.742-1.289,1.379-2.63,1.895-3.988l0.097-0.255      c4.718-12.446,7.245-13.369,8.112-13.19c5.985,1.248,12.446,1.88,19.205,1.88s13.22-0.632,19.205-1.88      c0.865-0.183,3.396,0.745,8.113,13.193l0.096,0.252c0.516,1.359,1.153,2.701,1.896,3.99c3.599,6.226,9.072,10.428,14.64,11.24      c0.418,0.061,0.842-0.058,1.168-0.325c0.087-0.071,0.165-0.152,0.233-0.239C191.545,73.213,191.485,69.131,191.453,66.934z       M187.718,71.443c-0.208,0.073-0.395,0.157-0.562,0.252c-4.425-0.931-8.777-4.484-11.759-9.643      c-0.662-1.15-1.231-2.346-1.69-3.556l-0.095-0.25c-3.187-8.41-6.788-16.053-11.531-15.067      c-5.784,1.205-12.04,1.816-18.593,1.816s-12.809-0.611-18.592-1.816c-4.737-0.988-8.343,6.656-11.53,15.063l-0.096,0.254      c-0.459,1.209-1.027,2.405-1.688,3.553c-1.709,2.953-3.938,5.447-6.436,7.206c-0.739,0.497-4.096,2.223-5.677,2.717      c-0.587-1.774-0.939-3.417-0.94-5.535c0-23.665,20.168-42.918,44.958-42.918c24.791,0,44.959,19.253,44.959,42.917l0.005,0.542      C188.51,70.853,187.955,71.357,187.718,71.443z"/>
			</g>
		</g>
		<g>
			<g>
				
					<rect x="124.368" y="139.171" transform="matrix(0.7986 -0.6019 0.6019 0.7986 -66.3968 109.2893)" class="st6" width="11.475" height="29.373"/>
			</g>
		</g>
		<g>
			<g>
				<path class="st3" d="M144.724,161.23l-17.678-23.458c-0.499-0.662-1.439-0.794-2.101-0.295l-9.164,6.906      c-0.318,0.239-0.527,0.595-0.583,0.989c-0.055,0.394,0.048,0.793,0.288,1.111l17.679,23.457      c0.295,0.391,0.744,0.597,1.199,0.597c0.314,0,0.631-0.098,0.902-0.302l9.164-6.906c0.318-0.239,0.527-0.595,0.583-0.989      C145.067,161.948,144.964,161.548,144.724,161.23z M134.658,166.938l-15.873-21.062l6.769-5.101l15.873,21.062L134.658,166.938z      "/>
			</g>
		</g>
		<g>
			<g>
				
					<rect x="142.186" y="148.12" transform="matrix(0.6019 -0.7986 0.7986 0.6019 -60.413 186.5361)" class="st6" width="29.373" height="11.475"/>
			</g>
		</g>
		<g>
			<g>
				<path class="st3" d="M171.779,145.373c-0.055-0.394-0.265-0.75-0.583-0.989l-9.164-6.906c-0.662-0.5-1.603-0.367-2.101,0.295      l-17.678,23.458c-0.24,0.318-0.343,0.718-0.288,1.111c0.055,0.394,0.265,0.75,0.583,0.989l9.164,6.906      c0.271,0.204,0.587,0.302,0.902,0.302c0.455,0,0.904-0.206,1.199-0.597l17.679-23.457      C171.731,146.167,171.834,145.767,171.779,145.373z M152.32,166.938l-6.768-5.1l15.873-21.062l6.769,5.101L152.32,166.938z"/>
			</g>
		</g>
		<g>
			<g>
				<path class="st3" d="M155.898,104.096c-0.776-0.292-1.641,0.103-1.931,0.879c-0.874,2.333-4.296,6.746-10.998,6.746      c-5.236,0-8.85-2.246-11.048-6.864c-0.356-0.748-1.251-1.065-1.999-0.71c-0.748,0.356-1.066,1.251-0.71,1.999      c2.708,5.69,7.337,8.575,13.757,8.575c7.25,0,12.239-4.506,13.807-8.694C157.067,105.25,156.674,104.386,155.898,104.096z"/>
			</g>
		</g>
		<g>
			<g>
				<path class="st5" d="M74.124,26.186C73.15,37.749,61.099,39.575,61.099,39.575c10.346,0.487,12.925,14.059,12.925,14.059      c0.221-9.677,13.321-14.202,13.321-14.202C77.532,38.845,74.124,26.186,74.124,26.186z"/>
			</g>
		</g>
		<g>
			<g>
				<path class="st3" d="M87.436,37.935C78.831,37.42,75.604,25.91,75.572,25.794c-0.191-0.702-0.852-1.159-1.583-1.102      c-0.725,0.066-1.298,0.642-1.359,1.367c-0.86,10.215-11.313,11.964-11.754,12.033c-0.763,0.115-1.313,0.79-1.273,1.561      c0.04,0.77,0.657,1.384,1.428,1.421c9.027,0.425,11.499,12.718,11.522,12.842c0.137,0.711,0.759,1.217,1.472,1.217      c0.042,0,0.084-0.001,0.126-0.005c0.764-0.064,1.356-0.693,1.374-1.459c0.194-8.509,12.191-12.777,12.313-12.819      c0.675-0.235,1.092-0.914,0.994-1.623C88.733,38.519,88.149,37.978,87.436,37.935z M73.87,48.28      c-1.357-3.13-3.709-6.907-7.587-8.876c2.931-1.404,6.409-3.913,8.202-8.272c1.551,3.071,4.199,6.88,8.333,8.722      C79.811,41.494,75.896,44.259,73.87,48.28z"/>
			</g>
		</g>
		<g>
			<g>
				<path class="st5" d="M52.425,43.166c-0.689,8.179-9.212,9.471-9.212,9.471c7.318,0.344,9.142,9.944,9.142,9.944      c0.156-6.845,9.422-10.046,9.422-10.046C54.836,52.12,52.425,43.166,52.425,43.166z"/>
			</g>
		</g>
		<g>
			<g>
				<path class="st3" d="M61.867,51.038c-5.766-0.345-7.972-8.186-7.994-8.265c-0.19-0.702-0.851-1.167-1.582-1.102      c-0.726,0.065-1.299,0.642-1.36,1.368c-0.579,6.871-7.646,8.067-7.942,8.114c-0.763,0.115-1.313,0.79-1.273,1.561      c0.04,0.77,0.657,1.384,1.428,1.421c6.035,0.284,7.723,8.644,7.739,8.726c0.135,0.713,0.759,1.22,1.472,1.22      c0.042,0,0.083-0.001,0.125-0.005c0.765-0.063,1.358-0.694,1.376-1.461c0.13-5.709,8.331-8.634,8.412-8.662      c0.676-0.234,1.094-0.913,0.996-1.622C63.166,51.623,62.581,51.081,61.867,51.038z M52.282,57.833      c-0.924-1.885-2.34-3.947-4.447-5.28c1.855-1.041,3.697-2.63,4.871-4.916c1.057,1.874,2.654,3.954,4.941,5.224      C55.797,53.961,53.658,55.601,52.282,57.833z"/>
			</g>
		</g>
		<g>
			<g>
				<path class="st5" d="M52.425,16.509c-0.689,8.179-9.212,9.471-9.212,9.471c7.318,0.344,9.142,9.944,9.142,9.944      c0.156-6.845,9.422-10.045,9.422-10.045C54.836,25.463,52.425,16.509,52.425,16.509z"/>
			</g>
		</g>
		<g>
			<g>
				<path class="st3" d="M61.866,24.38c-5.766-0.345-7.972-8.185-7.993-8.264c-0.19-0.702-0.851-1.168-1.582-1.102      c-0.726,0.065-1.299,0.642-1.36,1.368c-0.579,6.871-7.646,8.066-7.942,8.113c-0.763,0.115-1.313,0.79-1.273,1.561      c0.04,0.77,0.657,1.384,1.427,1.421c6.035,0.284,7.724,8.644,7.739,8.726c0.135,0.712,0.759,1.22,1.472,1.22      c0.042,0,0.083-0.001,0.125-0.005c0.765-0.063,1.358-0.694,1.376-1.461c0.13-5.709,8.331-8.634,8.412-8.662      c0.676-0.234,1.094-0.913,0.996-1.622C63.166,24.965,62.581,24.423,61.866,24.38z M52.282,31.176      c-0.924-1.886-2.34-3.947-4.447-5.28c1.855-1.041,3.697-2.63,4.871-4.916c1.057,1.874,2.654,3.954,4.941,5.223      C55.797,27.304,53.658,28.943,52.282,31.176z"/>
			</g>
		</g>
		<g>
			<g>
				<path class="st4" d="M142.97,16.253c-13.53,0-24.873,3.783-33.199,10.008l-9.849,10.571c-3.568,5.67-5.531,12.186-5.608,19.125      h97.312C191.382,33.996,172.296,16.253,142.97,16.253z"/>
			</g>
		</g>
		<g>
			<g>
				<path class="st3" d="M142.97,14.753c-13.289,0-25.079,3.564-34.097,10.307c-0.663,0.496-0.799,1.436-0.303,2.1      c0.496,0.663,1.436,0.799,2.1,0.303c8.495-6.352,19.664-9.709,32.3-9.709c26.457,0,45.997,15.343,47.108,36.705H95.862      c0.322-5.987,2.15-11.775,5.329-16.827c0.441-0.701,0.23-1.627-0.471-2.068c-0.701-0.441-1.626-0.229-2.068,0.471      c-3.741,5.946-5.76,12.83-5.838,19.908c-0.004,0.401,0.152,0.787,0.434,1.071c0.282,0.285,0.666,0.445,1.066,0.445h97.313      c0.401,0,0.785-0.16,1.066-0.445c0.282-0.285,0.438-0.67,0.434-1.071C192.861,32.075,171.768,14.753,142.97,14.753z"/>
			</g>
		</g>
		<g>
			<g>
				<ellipse class="st4" cx="142.97" cy="55.957" rx="48.656" ry="10.065"/>
			</g>
		</g>
		<g>
			<g>
				<path class="st3" d="M142.97,44.392c-20.161,0-50.156,3.08-50.156,11.565c0,8.485,29.995,11.565,50.156,11.565      s50.156-3.08,50.156-11.565C193.126,47.472,163.131,44.392,142.97,44.392z M142.97,64.522c-30.96,0-47.156-5.576-47.156-8.565      s16.196-8.565,47.156-8.565s47.156,5.576,47.156,8.565S173.93,64.522,142.97,64.522z"/>
			</g>
		</g>
		<g>
			<g>
				<path class="st11" d="M212.475,228.921l-13.083-63.157l-15.61,14.805l8.824,41.178h-27.944c-4.971,0-9,4.029-9,9s4.029,9,9,9h39      c2.707,0,5.271-1.219,6.979-3.318C212.351,234.329,213.024,231.572,212.475,228.921z"/>
			</g>
		</g>
		<g>
			<g>
				<path class="st3" d="M213.944,228.617l-13.083-63.157c-0.168-0.811-0.962-1.336-1.773-1.165      c-0.811,0.168-1.333,0.962-1.165,1.773l13.083,63.157c0.459,2.219-0.098,4.5-1.528,6.256c-1.431,1.757-3.551,2.765-5.816,2.765      h-39c-4.136,0-7.5-3.364-7.5-7.5s3.364-7.5,7.5-7.5h27.944c0.453,0,0.882-0.205,1.167-0.557c0.285-0.352,0.395-0.814,0.3-1.257      l-8.824-41.178c-0.173-0.81-0.97-1.326-1.781-1.152c-0.81,0.174-1.326,0.971-1.152,1.781l8.436,39.363h-26.089      c-5.79,0-10.5,4.71-10.5,10.5s4.71,10.5,10.5,10.5h39c3.172,0,6.14-1.411,8.143-3.871      C213.808,234.917,214.587,231.724,213.944,228.617z"/>
			</g>
		</g>
		<g>
			<g>
				<path class="st11" d="M121.246,221.747H93.301l8.804-41.573l-15.589-14.409l-13.083,63.157      c-0.549,2.651,0.124,5.408,1.833,7.508c1.709,2.099,4.272,3.318,6.979,3.318h39c4.971,0,9-4.029,9-9      S126.216,221.747,121.246,221.747z"/>
			</g>
		</g>
		<g>
			<g>
				<path class="st3" d="M121.246,220.247H95.152l8.42-39.763c0.172-0.81-0.346-1.606-1.157-1.778      c-0.809-0.174-1.606,0.346-1.778,1.157l-8.804,41.574c-0.094,0.442,0.017,0.903,0.302,1.255      c0.285,0.352,0.713,0.556,1.166,0.556h27.944c4.136,0,7.5,3.364,7.5,7.5s-3.364,7.5-7.5,7.5h-39      c-2.266,0-4.386-1.008-5.816-2.765c-1.43-1.757-1.987-4.037-1.528-6.256l13.083-63.157c0.168-0.811-0.354-1.605-1.165-1.773      c-0.813-0.171-1.605,0.354-1.773,1.165l-13.083,63.157c-0.643,3.107,0.136,6.299,2.139,8.759      c2.002,2.46,4.971,3.871,8.143,3.871h39c5.79,0,10.5-4.71,10.5-10.5S127.035,220.247,121.246,220.247z"/>
			</g>
		</g>
		<g>
			<g>
				<path class="st12" d="M164.79,221.747c-4.97,0-9,4.03-9,9c0,4.24,2.93,7.79,6.88,8.75h12.57c1.59,0,2.88-1.29,2.88-2.88v-14.87      H164.79z"/>
			</g>
		</g>
		<g>
			<g>
				<path class="st3" d="M178.12,220.247h-13.33c-5.79,0-10.5,4.71-10.5,10.5c0,4.862,3.3,9.059,8.025,10.208      c0.116,0.028,0.235,0.042,0.354,0.042h12.57c2.415,0,4.38-1.965,4.38-4.38v-14.87      C179.62,220.918,178.948,220.247,178.12,220.247z M176.62,236.617c0,0.761-0.619,1.38-1.38,1.38h-12.382      c-3.287-0.877-5.568-3.834-5.568-7.25c0-4.136,3.364-7.5,7.5-7.5h11.83V236.617z"/>
			</g>
		</g>
		<g>
			<g>
				<path class="st12" d="M121.15,221.747H106.6v14.87c0,1.59,1.29,2.88,2.88,2.88h13.79c3.95-0.96,6.88-4.51,6.88-8.75      C130.15,225.777,126.12,221.747,121.15,221.747z"/>
			</g>
		</g>
		<g>
			<g>
				<path class="st3" d="M121.149,220.247H106.6c-0.829,0-1.5,0.671-1.5,1.5v14.87c0,2.415,1.965,4.38,4.38,4.38h13.79      c0.119,0,0.238-0.014,0.354-0.042c4.726-1.148,8.026-5.346,8.026-10.208C131.649,224.957,126.939,220.247,121.149,220.247z       M123.082,237.997h-13.602c-0.761,0-1.38-0.619-1.38-1.38v-13.37h13.05c4.136,0,7.5,3.364,7.5,7.5      C128.649,234.162,126.369,237.119,123.082,237.997z"/>
			</g>
		</g>
		<g>
			<g>
				<circle class="st11" cx="142.97" cy="32.573" r="8.357"/>
			</g>
		</g>
		<g>
			<g>
				<path class="st3" d="M142.97,22.716c-5.436,0-9.857,4.422-9.857,9.857c0,5.435,4.422,9.857,9.857,9.857s9.857-4.422,9.857-9.857      C152.827,27.138,148.405,22.716,142.97,22.716z M142.97,39.431c-3.781,0-6.857-3.076-6.857-6.857      c0-3.781,3.076-6.857,6.857-6.857s6.857,3.076,6.857,6.857C149.827,36.354,146.751,39.431,142.97,39.431z"/>
			</g>
		</g>
		<g>
			<g>
				<path class="st4" d="M106.601,182.608v54.012c0,1.589,1.288,2.878,2.878,2.878h65.763c1.589,0,2.878-1.288,2.878-2.878v-54.012      H106.601z"/>
			</g>
		</g>
		<g>
			<g>
				<path class="st3" d="M178.119,181.107h-71.518c-0.829,0-1.5,0.671-1.5,1.5v8.168c0,0.829,0.671,1.5,1.5,1.5s1.5-0.671,1.5-1.5      v-6.668h68.518v52.512c0,0.76-0.618,1.377-1.377,1.377h-65.763c-0.76,0-1.377-0.618-1.377-1.377v-31.382      c0-0.829-0.671-1.5-1.5-1.5s-1.5,0.671-1.5,1.5v31.382c0,2.414,1.964,4.377,4.377,4.377h65.763c2.414,0,4.377-1.964,4.377-4.377      v-54.012C179.619,181.779,178.948,181.107,178.119,181.107z"/>
			</g>
		</g>
		<g>
			<g>
				<path class="st12" d="M121.15,221.747H106.6v14.87c0,1.59,1.29,2.88,2.88,2.88h13.79c3.95-0.96,6.88-4.51,6.88-8.75      C130.15,225.777,126.12,221.747,121.15,221.747z"/>
			</g>
		</g>
		<g>
			<g>
				<path class="st3" d="M121.149,220.247H106.6c-0.829,0-1.5,0.671-1.5,1.5v14.87c0,2.415,1.965,4.38,4.38,4.38h13.79      c0.119,0,0.238-0.014,0.354-0.042c4.726-1.148,8.026-5.346,8.026-10.208C131.649,224.957,126.939,220.247,121.149,220.247z       M123.082,237.997h-13.602c-0.761,0-1.38-0.619-1.38-1.38v-13.37h13.05c4.136,0,7.5,3.364,7.5,7.5      C128.649,234.162,126.369,237.119,123.082,237.997z"/>
			</g>
		</g>
		<g>
			<g>
				<path class="st12" d="M164.79,221.747c-4.97,0-9,4.03-9,9c0,4.24,2.93,7.79,6.88,8.75h12.57c1.59,0,2.88-1.29,2.88-2.88v-14.87      H164.79z"/>
			</g>
		</g>
		<g>
			<g>
				<path class="st3" d="M178.12,220.247h-13.33c-5.79,0-10.5,4.71-10.5,10.5c0,4.862,3.3,9.059,8.025,10.208      c0.116,0.028,0.235,0.042,0.354,0.042h12.57c2.415,0,4.38-1.965,4.38-4.38v-14.87      C179.62,220.918,178.948,220.247,178.12,220.247z M176.62,236.617c0,0.761-0.619,1.38-1.38,1.38h-12.382      c-3.287-0.877-5.568-3.834-5.568-7.25c0-4.136,3.364-7.5,7.5-7.5h11.83V236.617z"/>
			</g>
		</g>
		<g>
			<g>
				<path class="st4" d="M181.325,170.835h-76.711c-1.428,0-2.585,1.157-2.585,2.585v6.603c0,1.428,1.157,2.585,2.585,2.585h76.711      c1.428,0,2.585-1.157,2.585-2.585v-6.603C183.91,171.992,182.753,170.835,181.325,170.835z"/>
			</g>
		</g>
		<g>
			<g>
				<path class="st3" d="M181.325,169.335h-76.71c-2.252,0-4.085,1.833-4.085,4.085v6.603c0,2.252,1.833,4.085,4.085,4.085h76.71      c2.252,0,4.085-1.833,4.085-4.085v-6.603C185.41,171.167,183.577,169.335,181.325,169.335z M182.41,180.022      c0,0.598-0.487,1.085-1.085,1.085h-76.71c-0.598,0-1.085-0.487-1.085-1.085v-6.603c0-0.598,0.487-1.085,1.085-1.085h76.71      c0.598,0,1.085,0.487,1.085,1.085V180.022z"/>
			</g>
		</g>
		<g>
			<g>
				<rect x="129.644" y="170.835" class="st5" width="27.385" height="11.772"/>
			</g>
		</g>
		<g>
			<g>
				<path class="st3" d="M157.029,169.335h-27.385c-0.829,0-1.5,0.671-1.5,1.5v11.772c0,0.829,0.671,1.5,1.5,1.5h27.385      c0.829,0,1.5-0.671,1.5-1.5v-11.772C158.529,170.006,157.858,169.335,157.029,169.335z M155.529,181.107h-24.385v-8.772h24.385      V181.107z"/>
			</g>
		</g>
		<g>
			<g>
				<polygon class="st5" points="129.644,182.615 129.644,200.76 137.952,194.885 140.766,200.76 144.132,197.7 148.049,200.76       152.333,197.364 157.029,200.76 157.029,182.615     "/>
			</g>
		</g>
		<g>
			<g>
				<path class="st3" d="M157.029,181.115h-27.385c-0.829,0-1.5,0.671-1.5,1.5v18.145c0,0.561,0.313,1.074,0.811,1.332      s1.098,0.217,1.556-0.107l6.856-4.849l2.047,4.272c0.205,0.427,0.6,0.733,1.065,0.824c0.096,0.019,0.192,0.028,0.288,0.028      c0.37,0,0.73-0.137,1.009-0.39l2.43-2.209l2.92,2.281c0.546,0.426,1.313,0.423,1.855-0.007l3.394-2.69l3.776,2.73      c0.457,0.33,1.06,0.376,1.562,0.121c0.501-0.256,0.817-0.772,0.817-1.336v-18.145      C158.529,181.787,157.858,181.115,157.029,181.115z M155.529,197.824l-2.318-1.676c-0.544-0.394-1.284-0.377-1.811,0.04      l-3.359,2.663l-2.986-2.333c-0.272-0.212-0.598-0.318-0.923-0.318c-0.362,0-0.724,0.131-1.009,0.39l-1.875,1.704l-1.944-4.058      c-0.191-0.398-0.548-0.692-0.975-0.803c-0.429-0.111-0.882-0.028-1.244,0.227l-5.941,4.201v-13.747h24.385V197.824z"/>
			</g>
		</g>
		<g>
			<g>
				<path class="st7" d="M142.97,17.757c-1.52,0-3.02,0.05-4.5,0.15c21.46,1.46,37.59,13.29,41.65,30.04c4,0.95,7.37,2.12,9.67,3.53      C187.09,31.687,168.18,17.757,142.97,17.757z"/>
			</g>
		</g>
		<g>
			<g>
				<path class="st7" d="M180.75,51.187c-0.27-0.08-0.55-0.15-0.84-0.21c0-0.01-0.01-0.01-0.01-0.01      c-7.89-1.96-20.27-3.57-36.93-3.57c-1.54,0-3.04,0.01-4.5,0.04c28.03,0.51,42.66,5.68,42.66,8.52c0,2.84-14.63,8.02-42.66,8.53      c1.46,0.03,2.96,0.04,4.5,0.04c30.96,0,47.16-5.58,47.16-8.57C190.13,54.637,186.96,52.817,180.75,51.187z"/>
			</g>
		</g>
		<g>
			<g>
				<rect x="167.62" y="184.107" class="st7" width="9" height="36.14"/>
			</g>
		</g>
		<g>
			<g>
				<path class="st7" d="M181.33,172.337h-9c0.59,0,1.08,0.49,1.08,1.08v6.61c0,0.59-0.49,1.08-1.08,1.08h9      c0.59,0,1.08-0.49,1.08-1.08v-6.61C182.41,172.827,181.92,172.337,181.33,172.337z"/>
			</g>
		</g>
	</g>
</g>
</svg>
