<svg height="512" viewBox="0 0 256 256" width="512" xmlns="http://www.w3.org/2000/svg"><g id="Layer_3"><g><path d="m252.26 212.85v10.52c0 8.46-6.86 15.31-15.31 15.31h-217.9c-8.45 0-15.31-6.85-15.31-15.31v-10.52c0-2.82 2.29-5.1 5.11-5.1h9.96v-120.44c0-5.64 4.57-10.21 10.21-10.21h58.31l3.29 15.11 5.529 25.43h73.851l5.53-25.43 3.29-15.11h48.16c5.64 0 10.21 4.57 10.21 10.21v120.44h9.96c2.82 0 5.11 2.28 5.11 5.1z" fill="#72c1e8"/><path d="m87.33 77.1 3.29 15.11h-7.17c-1.88-8.67-2.65-12.19-3.28-15.11z" fill="#4ba5c8"/><path d="m185.99 77.1c-.64 2.93-1.4 6.43-3.29 15.11h-7.17l3.29-15.11z" fill="#4ba5c8"/><path d="m96.766 207.749v9.838c0 2.818 2.285 5.103 5.103 5.103h52.261c2.818 0 5.103-2.285 5.103-5.103v-9.838z" fill="#afafaf"/><path d="m222.08 92.21v100.43h-188.16v-100.43h56.7l5.529 25.43h73.851l5.53-25.43z" fill="#efefef"/><path d="m163.96 124.64h6.04c3.29 0 6.14-2.29 6.84-5.51 2.71-12.45 4.55-20.92 5.86-26.92h-7.17l-5.53 25.43h-73.851l-5.529-25.43h-7.17c1.28 5.88 3.08 14.13 5.7 26.17v10.85c-3.54 3.51-5.74 8.38-5.74 13.74 0 10.68 8.68 19.36 19.36 19.36 8.2 0 15.22-5.14 18.03-12.36h18.95c2.82 7.22 9.83 12.36 18.03 12.36 10.68 0 19.36-8.68 19.36-19.36 0-8.51-5.53-15.75-13.18-18.33zm-24.2 11.33h-18.96c-2.08-5.32-6.43-9.5-11.86-11.33h42.67c-5.43 1.83-9.78 6.01-11.85 11.33z" fill="#afafaf"/><path d="m181.47 64.89-2.65 12.21-3.29 15.11-5.53 25.43h-73.85l-5.53-25.43-3.29-15.11-2.65-12.21z" fill="#f0c020"/><path d="m170.738 12.659v17.072c0 .929-.748 1.677-1.665 1.677h-9.516c-.929 0-1.677.748-1.677 1.665v31.821h-49.606v-31.821c0-.918-.748-1.665-1.677-1.665h-9.527c-.929 0-1.677-.748-1.677-1.677v-17.072c0-.918.748-1.665 1.677-1.665h24.242c.918 0 1.665.748 1.665 1.665v.057c0 5.551 4.35 10.309 9.901 10.411 5.664.102 10.297-4.452 10.297-10.093v-.374c0-.918.748-1.665 1.665-1.665h24.231c.919-.001 1.667.747 1.667 1.664z" fill="#fc5d3d"/><path d="m108.274 56.964h49.606v7.93h-49.606z" fill="#d95034"/><circle cx="102.769" cy="142.974" fill="#efefef" r="12.36"/><circle cx="157.785" cy="142.974" fill="#efefef" r="12.36"/><path d="m83.12 57.705h-22.798c-3.331 0-6.032-2.701-6.032-6.032 0-3.331 2.701-6.032 6.032-6.032h20.181c1.968 9.066 1.387 6.39 2.617 12.064z" fill="#afafaf"/><path d="m236.999 230.973h-54.683c-1.381 0-2.5-1.119-2.5-2.5s1.119-2.5 2.5-2.5h54.683c1.436 0 2.603-1.167 2.603-2.603v-5.415c0-1.381 1.119-2.5 2.5-2.5s2.5 1.119 2.5 2.5v5.415c0 4.193-3.411 7.603-7.603 7.603zm-64.683 0h-5c-1.381 0-2.5-1.119-2.5-2.5s1.119-2.5 2.5-2.5h5c1.381 0 2.5 1.119 2.5 2.5s-1.119 2.5-2.5 2.5z" fill="#efefef"/><path d="m209.292 183.513h-152.667c-1.381 0-2.5-1.119-2.5-2.5s1.119-2.5 2.5-2.5h150.167v-74.78c0-1.381 1.119-2.5 2.5-2.5s2.5 1.119 2.5 2.5v77.28c0 1.381-1.12 2.5-2.5 2.5zm-162.667 0h-3c-1.381 0-2.5-1.119-2.5-2.5s1.119-2.5 2.5-2.5h3c1.381 0 2.5 1.119 2.5 2.5s-1.119 2.5-2.5 2.5z" fill="#fff"/><path d="m157.41 145.958c1.381 0 2.5-1.119 2.5-2.5v-.968c0-1.381-1.119-2.5-2.5-2.5s-2.5 1.119-2.5 2.5v.968c0 1.38 1.119 2.5 2.5 2.5z"/><path d="m102.394 145.958c1.381 0 2.5-1.119 2.5-2.5v-.968c0-1.381-1.119-2.5-2.5-2.5s-2.5 1.119-2.5 2.5v.968c0 1.38 1.119 2.5 2.5 2.5z"/><path d="m18.675 241.18h.005 22.895c1.38 0 2.5-1.12 2.5-2.5s-1.12-2.5-2.5-2.5h-22.9c-.001 0-.002 0-.003 0-7.061-.002-12.806-5.747-12.806-12.81v-10.52c0-1.434 1.171-2.6 2.61-2.6h85.42v7.34c0 4.19 3.41 7.6 7.6 7.6h52.26c4.19 0 7.6-3.41 7.6-7.6v-7.34h85.42c1.439 0 2.61 1.167 2.61 2.6v10.52c0 7.063-5.745 12.808-12.807 12.81-.001 0-.002 0-.003 0h-175c-1.38 0-2.5 1.12-2.5 2.5s1.12 2.5 2.5 2.5h174.994.005c9.82 0 17.81-7.99 17.81-17.81v-10.52c0-4.191-3.414-7.6-7.61-7.6h-7.46v-117.94c0-7.008-5.702-12.71-12.71-12.71h-15.16c-1.38 0-2.5 1.12-2.5 2.5s1.12 2.5 2.5 2.5h15.16c4.251 0 7.71 3.458 7.71 7.71v117.94c-12.069 0-202.127 0-213.38 0v-117.94c0-4.251 3.458-7.71 7.71-7.71h56.304l2.197 10.11h-53.601c-1.381 0-2.5 1.119-2.5 2.5v30.43c0 1.38 1.12 2.5 2.5 2.5s2.5-1.12 2.5-2.5v-27.93h52.188l5.042 23.199v13.357c-3.486 2.723-5.74 6.952-5.74 11.705 0 8.2 6.67 14.86 14.86 14.86 7.337 0 13.438-5.351 14.633-12.36h25.749c1.193 7.007 7.292 12.364 14.633 12.364 8.193 0 14.859-6.666 14.859-14.86s-6.666-14.86-14.859-14.86c-7.339 0-13.436 5.353-14.632 12.356h-25.75c-1.195-7.003-7.296-12.36-14.632-12.36-1.43 0-2.81.215-4.12.594v-8.564h71.35c1.176 0 2.193-.82 2.443-1.969l5.102-23.461h42.036v95.43h-183.162v-47.5c0-1.38-1.12-2.5-2.5-2.5s-2.5 1.12-2.5 2.5v50c0 1.381 1.119 2.5 2.5 2.5h188.16c1.381 0 2.5-1.119 2.5-2.5v-100.431c0-1.381-1.119-2.5-2.5-2.5h-43.449l2.198-10.11h10.99c1.38 0 2.5-1.12 2.5-2.5s-1.12-2.5-2.5-2.5h-9.903l1.996-9.18c.338-1.559-.852-3.03-2.443-3.03h-21.089v-28.482h8.692c2.297 0 4.166-1.874 4.166-4.177v-17.071c0-2.297-1.869-4.166-4.166-4.166h-24.231c-2.296 0-4.165 1.869-4.165 4.166v.374c0 4.262-3.504 7.677-7.751 7.594-4.106-.076-7.447-3.625-7.447-7.968 0-2.297-1.869-4.166-4.165-4.166h-24.243c-2.303 0-4.176 1.869-4.176 4.166v17.071c0 2.303 1.874 4.177 4.176 4.177h8.704v28.482h-19.073c-3.911-17.995-3.338-15.358-3.755-17.28-.245-1.127-1.272-1.97-2.443-1.97h-20.181c-4.705 0-8.532 3.828-8.532 8.532s3.828 8.532 8.532 8.532h20.787c2.664 12.26 2.546 11.713 3.128 14.395h-55.217c-7.008 0-12.71 5.702-12.71 12.71v117.94h-7.46c-4.196 0-7.61 3.409-7.61 7.6v10.52c0 9.821 7.989 17.811 17.81 17.811zm80.22-30.93h57.46v7.34c0 1.43-1.17 2.6-2.6 2.6h-52.26c-1.43 0-2.6-1.17-2.6-2.6zm58.515-77.136c5.437 0 9.859 4.423 9.859 9.86s-4.423 9.86-9.859 9.86-9.86-4.423-9.86-9.86 4.423-9.86 9.86-9.86zm-55.015-.004c5.43.01 9.85 4.44 9.86 9.86-.01 5.43-4.43 9.85-9.86 9.86-5.43-.01-9.85-4.43-9.86-9.86.01-5.42 4.43-9.85 9.86-9.86zm-4.605-17.97-4.644-21.369h19.861l2.837 21.369zm46.723 0h-23.625l-2.837-21.369h29.298zm-27.127-26.369-2.838-21.377h36.3l-2.837 21.377zm50.224 26.369h-18.06l2.84-21.369h19.867zm10.384-47.75-4.65 21.381h-20.289l2.841-21.377s-.044-.004 22.098-.004zm-80.475-38.482v-15.414h22.607c.393 6.64 5.774 12.012 12.333 12.132 6.742.155 12.586-5.172 12.834-12.132h22.57v15.414h-8.681c-2.303 0-4.176 1.869-4.176 4.165v29.317h-44.606v-29.317c0-2.296-1.874-4.165-4.176-4.165zm11.986 38.486 2.838 21.377h-20.284l-4.647-21.381c16.234 0 21.803.004 22.093.004zm-49.558-12.189c-1.948 0-3.532-1.584-3.532-3.532s1.584-3.532 3.532-3.532h18.165c.217 1 .022.1 1.533 7.064z"/><circle cx="51.575" cy="238.68" r="2.5"/><circle cx="201.445" cy="77.1" r="2.5"/><circle cx="33.545" cy="132.64" r="2.5"/></g><g><path d="m202.573 31.766c-3.468-1.142-6.176-1.881-7.989-9.691-.59-2.545-4.229-2.538-4.818 0-1.773 7.637-4.246 8.455-7.99 9.692-2.254.745-2.259 3.951 0 4.697 6.218 2.054 6.922 5.092 7.989 9.691.593 2.551 4.227 2.55 4.819 0 1.771-7.637 4.379-8.499 7.989-9.691 2.254-.746 2.259-3.952 0-4.698z"/><path d="m195.882 34.137c-1.37.96-2.6 2.25-3.66 4.13-.87-1.48-2.09-2.87-3.87-4.1 1.44-.98 2.73-2.32 3.83-4.31 1.12 2.01 2.39 3.34 3.7 4.28z" fill="#f0c020"/><path d="m77.073 119.266c-3.468-1.142-6.176-1.881-7.989-9.691-.59-2.545-4.229-2.538-4.818 0-1.773 7.637-4.246 8.455-7.99 9.692-2.254.745-2.259 3.951 0 4.697 6.218 2.054 6.922 5.092 7.989 9.691.593 2.551 4.227 2.55 4.819 0 1.771-7.637 4.379-8.499 7.989-9.691 2.254-.746 2.259-3.952 0-4.698z"/><path d="m70.382 121.637c-1.37.96-2.6 2.25-3.66 4.13-.87-1.48-2.09-2.87-3.87-4.1 1.44-.98 2.73-2.32 3.83-4.31 1.12 2.01 2.39 3.34 3.7 4.28z" fill="#f0c020"/></g></g></svg>