<svg height="512" viewBox="0 0 64 64" width="512" xmlns="http://www.w3.org/2000/svg"><g id="etherium"><circle cx="32" cy="32" fill="#546e7a" r="31"/><circle cx="32" cy="32" fill="#b0bec5" r="26.691"/><g fill="#546e7a"><path d="m24.7 33.213 6.924 2.828a1 1 0 0 0 .756 0l6.92-2.828a1 1 0 0 0 .565-1.257l-6.922-19.706a1 1 0 0 0 -1.886 0l-6.924 19.706a1 1 0 0 0 .567 1.257z"/><path d="m38.5 36.049-6.5 3.03-6.5-3.03a1 1 0 0 0 -1.325 1.338l6.925 14.464a1 1 0 0 0 1.8 0l6.924-14.464a1 1 0 0 0 -1.324-1.338z"/></g></g><g id="security"><path d="m32 58.691a26.691 26.691 0 1 1 26.69-26.691 26.721 26.721 0 0 1 -26.69 26.691zm0-51.382a24.691 24.691 0 1 0 24.69 24.691 24.718 24.718 0 0 0 -24.69-24.691z"/><path d="m32 63a31 31 0 1 1 31-31 31.035 31.035 0 0 1 -31 31zm0-60a29 29 0 1 0 29 29 29.033 29.033 0 0 0 -29-29z"/><path d="m32 36.115a1.006 1.006 0 0 1 -.378-.074l-6.922-2.828a1 1 0 0 1 -.565-1.257l6.922-19.706a1 1 0 0 1 1.886 0l6.924 19.706a1 1 0 0 1 -.565 1.257l-6.924 2.828a1.006 1.006 0 0 1 -.378.074zm-5.665-4.393 5.665 2.313 5.665-2.313-5.665-16.122z"/><path d="m32 52.419a1 1 0 0 1 -.9-.568l-6.926-14.464a1 1 0 0 1 1.326-1.338l6.5 3.03 6.5-3.03a1 1 0 0 1 1.325 1.338l-6.925 14.464a1 1 0 0 1 -.9.568zm-4.816-13.378 4.816 10.059 4.816-10.062-4.393 2.048a1 1 0 0 1 -.846 0z"/></g></svg>