<svg id="Layer_3" height="512" viewBox="0 0 64 64" width="512" xmlns="http://www.w3.org/2000/svg" data-name="Layer 3"><path d="m32 8-26 26v24h52v-24z" fill="#ccc"/><path d="m32 8-26 26v17h42a4 4 0 0 0 4-4v-19z" fill="#f2f2f2"/><rect fill="#fff" height="18" rx="3" width="27" x="16" y="26"/><path d="m23 42h18v12h-18z" fill="#f3a845"/><path d="m23 42v9h11a4 4 0 0 0 4-4v-5z" fill="#eecc61"/><rect fill="#fce79c" height="4" rx="1" width="9" x="25" y="44"/><path d="m4 58h56v4h-56z" fill="#2763bb"/><path d="m2 32 30-30 30 30v6l-30-30-30 30z" fill="#2763bb"/><path d="m57 27v-14h-8v6z" fill="#ccc"/><path d="m47 9h12v4h-12z" fill="#2763bb"/><path d="m32 30a7 7 0 0 0 -7 7v5h4v-5a3 3 0 0 1 6 0v5h4v-5a7 7 0 0 0 -7-7z" fill="#939393"/><circle cx="32" cy="47" fill="#fff" r="2"/><path d="m47 11h8a2 2 0 0 0 2-2h-10z" fill="#3079e6"/><path d="m49 13v6l1 1h2a3 3 0 0 0 3-3v-4z" fill="#f2f2f2"/><path d="m4 58v2h51a2.99 2.99 0 0 0 2.816-2z" fill="#3079e6"/><path d="m62.707 31.293-4.707-4.707v-12.586h1a1 1 0 0 0 1-1v-4a1 1 0 0 0 -1-1h-12a1 1 0 0 0 -1 1v4a1 1 0 0 0 1 1h1v2.586l-15.293-15.293a1 1 0 0 0 -1.414 0l-30 30a1 1 0 0 0 -.293.707v6a1 1 0 0 0 1.707.707l2.293-2.293v20.586h-1a1 1 0 0 0 -1 1v4a1 1 0 0 0 1 1h56a1 1 0 0 0 1-1v-4a1 1 0 0 0 -1-1h-1v-20.586l2.293 2.293a1 1 0 0 0 1.707-.707v-6a1 1 0 0 0 -.293-.707zm-14.707-21.293h10v2h-10zm2 4h6v10.586l-6-6zm9 47h-54v-2h54zm-2-4h-50v-22.586l25-25 25 25zm4-21.414-28.293-28.293a1 1 0 0 0 -1.414 0l-28.293 28.293v-3.172l29-29 29 29z"/><path d="m24 37v4h-1a1 1 0 0 0 -1 1v12a1 1 0 0 0 1 1h18a1 1 0 0 0 1-1v-12a1 1 0 0 0 -1-1h-1v-4a8 8 0 0 0 -16 0zm16 16h-16v-10h16zm-6-12h-4v-4a2 2 0 0 1 4 0zm4-4v4h-2v-4a4 4 0 0 0 -8 0v4h-2v-4a6 6 0 0 1 12 0z"/><path d="m31 49.816v2.184h2v-2.184a3 3 0 1 0 -2 0zm1-3.816a1 1 0 1 1 -1 1 1 1 0 0 1 1-1z"/><path d="m53 46h2v2h-2z"/><path d="m55 54v-4h-2v3h-3v2h4a1 1 0 0 0 1-1z"/><path d="m11 50h-2v4a1 1 0 0 0 1 1h4v-2h-3z"/></svg>