<svg height="512" viewBox="0 0 64 64" width="512" xmlns="http://www.w3.org/2000/svg"><g id="_12-Security" data-name="12-Security"><path d="m6 45h42v4h-42z" fill="#ef5350"/><path d="m48 45v4h-42v-2h34a2 2 0 0 0 2-2z" fill="#e53935"/><path d="m27 3a2.90031 2.90031 0 0 0 -1.7875.61631l-22.2125 17.38369 2.81 3.58 21.19-16.58 21.19 16.58 2.81-3.58-22.2125-17.38369a2.90031 2.90031 0 0 0 -1.7875-.61631z" fill="#ef5350"/><path d="m45 16.304v-13.304h-8v7.043z" fill="#757575"/><path d="m45 22.08v22.92h-36v-22.92l18-14.08z" fill="#eee"/><path d="m44.946 22.038-17.946-14.038-18 14.08v3.813l18-14.084 15 11.736v21.455h3v-22.92z" fill="#e0e0e0"/><path d="m29 27h11v9h-11z" fill="#64b5f6" transform="matrix(-1 0 0 -1 69 63)"/><path d="m40 27v9h-11v-3h4a4 4 0 0 0 4-4v-2z" fill="#42a5f5"/><path d="m14 27h10v18h-10z" fill="#757575"/><path d="m24 27v18h-10v-3h3a4 4 0 0 0 4-4v-11z" fill="#616161"/><path d="m57 41h-2v-4a7 7 0 0 0 -14 0v4h-2v-4a9 9 0 0 1 18 0z" fill="#757575"/><path d="m35 41h26a0 0 0 0 1 0 0v18a2 2 0 0 1 -2 2h-22a2 2 0 0 1 -2-2v-18a0 0 0 0 1 0 0z" fill="#ffb74d"/><path d="m61 41v18a2.00591 2.00591 0 0 1 -2 2h-22a2.00591 2.00591 0 0 1 -2-2v-3a2.00591 2.00591 0 0 0 2 2h17a2.00591 2.00591 0 0 0 2-2v-15z" fill="#ffa726"/><circle cx="48" cy="49" fill="#757575" r="3"/><path d="m48 57a.99974.99974 0 0 1 -1-1v-6a1 1 0 0 1 2 0v6a.99974.99974 0 0 1 -1 1z" fill="#757575"/><path d="m37 6.234v3.809l8 6.261v-3.809z" fill="#616161"/></g></svg>