<svg id="Capa_1" enable-background="new 0 0 511.999 511.999" height="512" viewBox="0 0 511.999 511.999" width="512" xmlns="http://www.w3.org/2000/svg"><g><g><path d="m256 48.007-178.106 173.248v254.5h356.211v-254.5z" fill="#dfebfa"/></g><path d="m120.134 247.24c0-6.075 2.456-11.892 6.811-16.128l158.647-154.32-29.592-28.785-178.106 173.248v254.499h42.24z" fill="#b1dbfc"/><g><g><path d="m365.151 36.245v64.593l57.032 55.477v-120.07z" fill="#695d67"/></g></g><path d="m398.18 105.227c-2.885-2.806-4.513-6.66-4.513-10.685v-58.297h-28.516v64.593l57.032 55.477v-27.739z" fill="#544e55"/><path d="m481.356 210.784-210.481-204.742c-8.282-8.057-21.47-8.057-29.751 0l-210.481 204.742c-8.446 8.215-8.633 21.722-.417 30.168s21.723 8.633 30.168.417l192.678-187.424c1.63-1.585 4.225-1.585 5.855 0l192.678 187.423c8.45 8.219 21.956 8.027 30.168-.417 8.216-8.445 8.029-21.952-.417-30.167z" fill="#ff656f"/><g><path d="m253.072 53.945c.732-.712 1.66-1.086 2.607-1.159l18.754-18.243c5.538-5.388 13.267-7.153 20.259-5.334l-23.817-23.167c-8.282-8.057-21.47-8.057-29.751 0l-210.481 204.742c-8.446 8.215-8.633 21.722-.417 30.168s21.723 8.633 30.168.417z" fill="#ff4756"/></g><path d="m438.728 31.885v-24.435c0-4.114-3.336-7.45-7.45-7.45h-75.222c-4.114 0-7.449 3.335-7.449 7.45v24.436c0 4.114 3.335 7.45 7.449 7.45h75.222c4.114-.001 7.45-3.336 7.45-7.451z" fill="#7b6c79"/><path d="m377.123 31.885v-24.435c0-4.114 3.335-7.45 7.449-7.45h-28.516c-4.114 0-7.449 3.335-7.449 7.45v24.436c0 4.114 3.335 7.45 7.449 7.45h28.516c-4.114-.001-7.449-3.336-7.449-7.451z" fill="#695d67"/><path d="m119.104 282.861h119.472v192.893h-119.472z" fill="#ab6b51"/><path d="m119.104 282.861h38.692v192.893h-38.692z" fill="#965a44"/><path d="m273.423 283.891v144.255c0 3.181 2.579 5.761 5.761 5.761h107.951c3.181 0 5.761-2.579 5.761-5.761v-144.255z" fill="#60b8fe"/><path d="m312.115 428.146v-144.255h-38.692v144.255c0 3.181 2.579 5.761 5.761 5.761h38.692c-3.182 0-5.761-2.58-5.761-5.761z" fill="#23a8fe"/><path d="m340.885 284.921c0-.35-.031-.692-.076-1.03h-15.3c-.045.338-.076.68-.076 1.03v66.767h-52.01v15.453h52.01v66.765h15.453v-66.765h52.01v-15.453h-52.01v-66.767z" fill="#8bcaff"/><path d="m273.423 351.689h38.692v15.453h-38.692z" fill="#60b8fe"/><path d="m387.135 247.41h-107.951c-3.182 0-5.761 2.579-5.761 5.761v31.75h119.472v-31.75c0-3.181-2.579-5.761-5.76-5.761z" fill="#23a8fe"/><path d="m317.876 247.41h-38.692c-3.182 0-5.761 2.579-5.761 5.761v31.751h38.692v-31.751c0-3.181 2.579-5.761 5.761-5.761z" fill="#0193fa"/><path d="m232.816 247.41h-107.951c-3.181 0-5.761 2.579-5.761 5.761v31.751h119.472v-31.751c0-3.181-2.579-5.761-5.76-5.761z" fill="#bc7c63"/><path d="m163.557 247.41h-38.692c-3.181 0-5.761 2.579-5.761 5.761v31.751h38.692v-31.751c0-3.181 2.579-5.761 5.761-5.761z" fill="#ab6b51"/><circle cx="196.94" cy="367.948" fill="#dfebfa" r="15.467"/><path d="m441.626 472.664h-371.253c-4.114 0-7.449 3.335-7.449 7.45v24.436c0 4.114 3.335 7.45 7.449 7.45h371.253c4.114 0 7.45-3.335 7.45-7.45v-24.436c0-4.115-3.336-7.45-7.45-7.45z" fill="#43cb8e"/><path d="m110.054 504.549v-24.436c0-4.114 3.335-7.45 7.449-7.45h-47.13c-4.114 0-7.449 3.335-7.449 7.45v24.436c0 4.114 3.335 7.45 7.449 7.45h47.131c-4.115 0-7.45-3.335-7.45-7.45z" fill="#00ba66"/></g></svg>