<svg id="Capa_1" enable-background="new 0 0 512 512" height="512" viewBox="0 0 512 512" width="512" xmlns="http://www.w3.org/2000/svg"><g><g><path d="m128.671 344.993c-22.641 10.537-38.337 33.49-38.337 60.107v82.833c0 9.15 7.417 16.567 16.567 16.567h298.199c9.149 0 16.567-7.417 16.567-16.567v-82.833c0-26.62-15.698-49.573-38.342-60.109z" fill="#d19a6e"/><path d="m383.324 344.991-254.654.002c-22.64 10.537-38.336 33.489-38.336 60.107v82.833c0 9.15 7.417 16.567 16.567 16.567h99.399l49.7-36.95 49.7 36.95h99.4c9.149 0 16.567-7.417 16.567-16.567v-82.833c-.001-26.62-15.699-49.573-38.343-60.109z" fill="#d19a6e"/><path d="m383.324 344.991h-23c22.643 10.536 38.341 33.49 38.341 60.109v82.833c0 9.15-7.417 16.567-16.567 16.567h23c9.149 0 16.567-7.417 16.567-16.567v-82.833c.001-26.62-15.697-49.573-38.341-60.109z" fill="#bc845e"/><path d="m382.048 347.48c3.27-4.36 1.51-10.637-3.55-12.661l-72.798-29.119h-99.401l-72.798 29.119c-5.061 2.024-6.821 8.301-3.55 12.661l40.237 53.65c1.55 2.067.85 5.034-1.461 6.189l-19.53 9.765c-4.717 2.358-6.058 8.465-2.764 12.583l59.867 74.833h24.85l26.7-20.876 23 20.876h24.85l59.866-74.832c3.294-4.118 1.953-10.225-2.764-12.583l-19.53-9.765c-2.311-1.156-3.012-4.122-1.461-6.189z" fill="#bc845e"/><path d="m305.699 289.141v39.808c0 6.581-.49 13.152-1.466 19.66l-23.383 155.891h-49.7l-23.384-155.889c-.976-6.508-1.466-13.08-1.466-19.661v-39.816z" fill="#ffd9b3"/><g><path d="m209.68 361.373 48.17 51.572 44.468-51.571 1.915-12.766c.976-6.508 1.466-13.079 1.466-19.66v-39.808l-99.4-.006v39.816c0 6.581.49 13.152 1.466 19.66z" fill="#ffd9b3"/></g><g><path d="m282.699 328.948c0 6.581-.49 13.152-1.466 19.66l-6.758 45.057 27.843-32.291 1.915-12.766c.976-6.508 1.466-13.079 1.466-19.66v-39.808l-99.4-.006v.001l76.4.005z" fill="#fb9"/></g><g><path d="m176.168 156.6h-19.567c-9.15 0-16.567 7.417-16.567 16.567v33.133c0 9.15 7.417 16.567 16.567 16.567h19.567z" fill="#fb9"/><path d="m338.834 118.466h-165.667l.001 104.403c0 45.747 37.085 82.832 82.832 82.832 9.277 0 18.187-1.548 26.515-4.361l7.099-12.2h16.081c20.121-15.112 33.138-39.17 33.138-66.271v-.006l-8.292-33.131 8.292-33.132z" fill="#ffd9b3"/><path d="m335.834 222.867h19.566c9.15 0 16.567-7.417 16.567-16.567v-33.134c0-9.15-7.417-16.567-16.567-16.567h-19.567v66.268z" fill="#ffd9b3"/><g fill="#fb9"><path d="m315.631 118.466v104.403c0 41.808-30.979 76.362-71.231 82.007 3.793.532 7.662.826 11.601.826 45.747 0 82.832-37.085 82.832-82.832v-104.403h-23.202z"/><path d="m355.4 156.6h-16.567v1.392c5.844 2.56 9.931 8.386 9.931 15.174v33.134c0 6.788-4.087 12.615-9.931 15.174v1.392h16.567c9.149 0 16.567-7.417 16.567-16.567v-33.134c0-9.148-7.417-16.565-16.567-16.565z"/></g></g><ellipse cx="222.866" cy="189.733" fill="#71ddf9" rx="16.567" ry="16.567" transform="matrix(.973 -.23 .23 .973 -37.63 56.28)"/><ellipse cx="289.133" cy="189.733" fill="#71ddf9" rx="16.567" ry="16.567" transform="matrix(.707 -.707 .707 .707 -49.477 260.02)"/><path d="m302.318 361.374c-11.947 11.678-28.292 18.876-46.318 18.876-18.027 0-34.373-7.198-46.32-18.877l21.47 143.127h49.7z" fill="#faf2f3"/><path d="m302.318 361.374c-7.081 6.921-15.714 12.251-25.319 15.459l-19.149 127.667h23z" fill="#f0e5e0"/><path d="m222.866 173.167c-4.469 0-8.517 1.778-11.497 4.655 3.121 3.013 5.069 7.231 5.069 11.912 0 4.68-1.949 8.899-5.069 11.912 2.98 2.877 7.028 4.655 11.497 4.655 9.149 0 16.567-7.417 16.567-16.567s-7.417-16.567-16.567-16.567z" fill="#23c7f7"/><path d="m289.133 173.167c-4.469 0-8.517 1.778-11.497 4.655 3.121 3.013 5.069 7.231 5.069 11.912 0 4.68-1.949 8.899-5.069 11.912 2.98 2.877 7.028 4.655 11.497 4.655 9.149 0 16.567-7.417 16.567-16.567s-7.417-16.567-16.567-16.567z" fill="#23c7f7"/><path d="m338.833 106.9v-16.567l-11.24-56.198c-3.097-15.487-16.695-26.635-32.489-26.635h-15.675c-4.394 0-8.608 1.745-11.714 4.852-6.47 6.47-16.959 6.47-23.429 0-3.107-3.107-7.321-4.852-11.714-4.852h-15.677c-15.794 0-29.392 11.148-32.49 26.635l-11.24 56.198v16.567z" fill="#d19a6e"/><g><g><path d="m327.593 34.135c-3.097-15.487-16.695-26.635-32.489-26.635h-15.675c-1.011 0-2.01.103-2.991.283 13.896 1.822 25.351 12.301 28.161 26.352l11.24 56.198v16.567h22.994v-16.567z" fill="#bc845e"/></g></g><path d="m363.683 140.033v-16.567l-5.146-20.585c-1.844-7.375-8.47-12.549-16.072-12.549h-172.931c-7.602 0-14.229 5.174-16.072 12.549l-5.145 20.584v16.567h215.366z" fill="#71ddf9"/><path d="m358.537 102.882c-1.844-7.375-8.47-12.549-16.072-12.549h-22.995c7.602 0 14.228 5.174 16.072 12.549l5.146 20.585v16.567h22.995v-16.567z" fill="#23c7f7"/><path d="m396.816 123.467c4.575 0 8.283 3.709 8.283 8.283v8.283c0 9.15-7.417 16.567-16.567 16.567h-265.066c-9.15 0-16.567-7.417-16.567-16.567v-8.283c0-4.575 3.709-8.283 8.283-8.283z" fill="#d19a6e"/><path d="m396.816 123.467h-22.995c4.575 0 8.283 3.709 8.283 8.283v8.283c0 9.15-7.417 16.567-16.567 16.567h22.994c9.15 0 16.567-7.417 16.567-16.567v-8.283c.002-4.575-3.707-8.283-8.282-8.283z" fill="#bc845e"/></g><g><path d="m391.063 340.522c-.099-.76-.233-1.52-.444-2.274-1.336-4.766-4.739-8.554-9.335-10.392l-68.084-27.234v-7.889c18.399-15.091 30.75-37.293 32.82-62.366h9.381c13.27 0 24.066-10.797 24.066-24.067v-33.134c0-3.206-.635-6.265-1.778-9.065h10.844c13.27 0 24.067-10.797 24.067-24.067v-8.283c0-8.703-7.08-15.783-15.783-15.783h-27.278l-3.726-14.904c-2.475-9.899-10.838-17.029-20.801-18.08l-10.064-50.317c-3.786-18.93-20.542-32.667-39.844-32.667h-15.675c-6.429 0-12.473 2.504-17.018 7.049-3.536 3.537-9.288 3.534-12.822.001-4.545-4.546-10.589-7.05-17.018-7.05h-15.677c-19.302 0-36.059 13.737-39.844 32.665l-10.064 50.317c-9.964 1.051-18.327 8.182-20.801 18.082l-3.725 14.902h-27.278c-8.703 0-15.783 7.08-15.783 15.783v8.283c0 13.27 10.796 24.067 24.067 24.067h10.847c-1.143 2.8-1.779 5.86-1.779 9.066v33.135c0 13.27 10.796 24.067 24.067 24.067h9.38c2.07 25.072 14.42 47.272 32.817 62.363v7.892l-68.083 27.233c-4.596 1.839-7.998 5.627-9.335 10.392-.211.754-.345 1.513-.444 2.274-23.303 12.903-38.103 37.716-38.103 64.578v25.575c0 4.143 3.358 7.5 7.5 7.5s7.5-3.357 7.5-7.5v-25.574c0-20.59 10.914-39.668 28.276-50.241l35.664 47.552-15.931 7.965c-4.284 2.142-7.33 6.053-8.357 10.73-1.027 4.679.099 9.507 3.091 13.247l50.119 62.647h-83.794c-4.999 0-9.067-4.067-9.067-9.066v-22.26c0-4.142-3.358-7.5-7.5-7.5s-7.5 3.358-7.5 7.5v22.26c0 13.271 10.796 24.066 24.067 24.066h298.199c13.27 0 24.067-10.796 24.067-24.066v-82.834c-.001-26.864-14.8-51.675-38.104-64.578zm-15.351 1.261c.089.035.359.144.463.516.105.372-.07.605-.127.682l-40.237 53.649c-2.078 2.77-2.813 6.29-2.018 9.66.796 3.369 3.028 6.189 6.124 7.737l19.53 9.765c.083.042.334.167.415.533.081.365-.096.585-.153.657l-57.614 72.018h-12.536l22.091-147.279c1.028-6.854 1.549-13.843 1.549-20.772v-12.17zm-138.104 155.217-17.811-118.737c10.937 6.179 23.327 9.487 36.202 9.487 12.874 0 25.264-3.309 36.201-9.487l-17.809 118.737zm60.591-168.052c0 6.188-.465 12.428-1.383 18.548l-1.527 10.179c-10.807 9.735-24.661 15.075-39.29 15.075-14.63 0-28.484-5.341-39.29-15.076l-1.527-10.177c-.919-6.118-1.384-12.358-1.384-18.547v-26.233c12.604 6.688 26.967 10.485 42.202 10.485 15.234 0 29.596-3.796 42.199-10.483zm66.268-155.782v33.134c0 5-4.067 9.067-9.066 9.067h-9.067v-51.267h9.086c4.99.011 9.047 4.074 9.047 9.066zm-172.708-137.56c2.388-11.94 12.959-20.606 25.135-20.606h15.677c2.422 0 4.699.943 6.411 2.656 9.384 9.383 24.652 9.384 34.036-.001 1.712-1.712 3.989-2.655 6.411-2.655h15.675c12.176 0 22.747 8.666 25.135 20.606l9.445 47.227h-147.371zm-77.359 104.427v-8.283c0-.432.352-.783.783-.783h57.982c4.142 0 7.5-3.357 7.5-7.5s-3.358-7.5-7.5-7.5h-15.243l2.816-11.266c1.011-4.044 4.627-6.868 8.795-6.868h172.932c4.168 0 7.785 2.824 8.796 6.868l2.816 11.266h-145.912c-4.142 0-7.5 3.357-7.5 7.5s3.358 7.5 7.5 7.5h155.489c.008 0 .015.002.023.002.011 0 .021-.002.032-.002h33.108c.432 0 .783.352.783.783v8.283c0 5-4.067 9.067-9.067 9.067h-265.066c-5 .001-9.067-4.067-9.067-9.067zm33.134 66.267v-33.133c0-4.993 4.057-9.056 9.048-9.066h9.085l.001 51.267h-9.067c-4.999-.001-9.067-4.068-9.067-9.068zm33.134 16.57-.001-58.77h150.666v58.77c0 41.538-33.794 75.332-75.332 75.332-41.539 0-75.333-33.794-75.333-75.332zm-28.378 202.112c-.058-.072-.234-.292-.153-.657.08-.366.332-.491.415-.533l19.53-9.764c3.097-1.549 5.329-4.369 6.125-7.738.795-3.37.06-6.891-2.017-9.66l-40.237-53.649c-.058-.076-.232-.31-.128-.682s.375-.48.463-.516l62.512-25.005v12.172c0 6.931.521 13.92 1.55 20.772l22.091 147.278h-12.536zm261.876 62.952c0 4.999-4.067 9.066-9.067 9.066h-83.795l50.117-62.647c2.992-3.74 4.119-8.568 3.091-13.247-1.027-4.678-4.074-8.589-8.357-10.73l-15.931-7.965 35.664-47.552c17.362 10.573 28.277 29.651 28.277 50.241v82.834z"/><path d="m274.105 224.664c-3.583-2.078-8.173-.857-10.25 2.728-1.624 2.803-4.634 4.544-7.854 4.544s-6.229-1.741-7.855-4.545c-2.078-3.583-6.666-4.804-10.25-2.727s-4.804 6.666-2.727 10.25c4.299 7.415 12.281 12.021 20.831 12.021 8.551 0 16.533-4.606 20.831-12.022 2.078-3.583.857-8.172-2.726-10.249z"/><path d="m222.866 213.8c10.651 0 19.704-6.958 22.863-16.566h20.54c3.16 9.608 12.212 16.566 22.863 16.566 13.271 0 24.067-10.796 24.067-24.066s-10.796-24.066-24.067-24.066c-10.652 0-19.704 6.958-22.863 16.566h-20.54c-3.16-9.608-12.212-16.566-22.863-16.566-13.271 0-24.067 10.796-24.067 24.066.001 13.27 10.797 24.066 24.067 24.066zm66.267-33.133c4.999 0 9.067 4.067 9.067 9.066s-4.067 9.066-9.067 9.066c-4.999 0-9.066-4.067-9.066-9.066s4.067-9.066 9.066-9.066zm-66.267 0c4.999 0 9.066 4.067 9.066 9.066s-4.067 9.066-9.066 9.066c-5 0-9.067-4.067-9.067-9.066.001-4.999 4.068-9.066 9.067-9.066z"/></g></g></svg>