<svg height="512" viewBox="0 0 48 48" width="512" xmlns="http://www.w3.org/2000/svg"><g id="_13-litecoin" data-name="13-litecoin"><circle cx="24" cy="24" fill="#808285" r="23"/><circle cx="24" cy="24" fill="#d1d3d4" r="18"/><path d="m23.5 30 2-5 4-1 1-4-4 1 3-10h-8l-4 13-4 1-1 4 4-1-2 6h20l1-4z" fill="#808285"/><path d="m12 24a23.00563 23.00563 0 0 1 17.5-22.33313 23 23 0 1 0 0 44.66626 23.00568 23.00568 0 0 1 -17.5-22.33313z" fill="#58595b"/><path d="m12 24a22.94606 22.94606 0 0 1 8.18225-17.58539 17.99369 17.99369 0 0 0 0 35.17078 22.94615 22.94615 0 0 1 -8.18225-17.58539z" fill="#808285"/><path d="m24 48a24 24 0 1 1 24-24 24.0275 24.0275 0 0 1 -24 24zm0-46a22 22 0 1 0 22 22 22.02489 22.02489 0 0 0 -22-22z"/><path d="m24 43a19 19 0 1 1 19-19 19.02162 19.02162 0 0 1 -19 19zm0-36a17 17 0 1 0 17 17 17.019 17.019 0 0 0 -17-17z"/><path d="m34.5 35h-20a1.00015 1.00015 0 0 1 -.94873-1.31641l1.42383-4.27148-2.23242.55762a.99972.99972 0 0 1 -1.21289-1.21192l1-4.00049a1.00186 1.00186 0 0 1 .72753-.72753l3.45268-.86329 3.83447-12.46045a.99932.99932 0 0 1 .95553-.70605h8a.9994.9994 0 0 1 .958 1.28711l-2.49512 8.31641 2.29492-.57373a.99972.99972 0 0 1 1.21192 1.21289l-1 4a.99954.99954 0 0 1 -.72754.72753l-3.50391.87549-1.26127 3.1543h10.523a.9997.9997 0 0 1 .96973 1.24219l-1 4a.99962.99962 0 0 1 -.96973.75781zm-18.61279-2h17.83154l.5-2h-10.71875a1.00012 1.00012 0 0 1 -.92871-1.37109l2-5.00049a1.00172 1.00172 0 0 1 .68652-.59863l3.418-.8545.4502-1.80078-2.38379.5957a.99993.99993 0 0 1 -1.2002-1.25732l2.61423-8.71289h-5.91748l-3.7832 12.294a.99921.99921 0 0 1 -.71289.67626l-3.418.854-.4502 1.80176 2.38281-.59571a.98934.98934 0 0 1 .97657.29 1.0007 1.0007 0 0 1 .21484.9961z"/></g></svg>