<svg enable-background="new 0 0 256 256" height="512" viewBox="0 0 256 256" width="512" xmlns="http://www.w3.org/2000/svg"><g id="Layer_51"><g><g><g><path d="m236.79 29.342h-217.58c-7.012 0-12.748 5.737-12.748 12.748v159.354c0 7.012 5.737 12.748 12.748 12.748h217.58c7.012 0 12.748-5.737 12.748-12.748v-159.354c0-7.011-5.737-12.748-12.748-12.748z" fill="#5290db"/></g></g><g><g><path d="m19.21 39.966c-1.169 0-2.125.956-2.125 2.125v138.107h221.829v-138.108c0-1.169-.956-2.125-2.125-2.125h-217.579z" fill="#edf4fc"/></g></g><g><g><path d="m236.79 39.966h-217.58c-1.169 0-2.125.956-2.125 2.125v55.409h221.829v-55.41c0-1.168-.956-2.124-2.124-2.124z" fill="#70d6f9"/></g></g><g><g><path d="m171.714 241.558h-87.428c-3.298 0-5.971 2.674-5.971 5.971 0 3.298 2.673 5.971 5.971 5.971h87.428c3.298 0 5.971-2.674 5.971-5.971 0-3.298-2.673-5.971-5.971-5.971z" fill="#edf4fc"/></g></g><g><g><path d="m103.862 214.193h48.276v27.365h-48.276z" fill="#c7d7e5"/></g></g><g><g><path d="m6.462 180.197v21.247c0 7.012 5.737 12.748 12.748 12.748h217.58c7.012 0 12.748-5.737 12.748-12.748v-21.247z" fill="#edf4fc"/></g></g><g><g><path d="m128 190.907c-3.473 0-6.288 2.815-6.288 6.288 0 3.473 2.815 6.288 6.288 6.288s6.288-2.815 6.288-6.288c0-3.473-2.815-6.288-6.288-6.288z" fill="#c7d7e5"/></g></g><g><g><path d="m17.086 168.255h221.829v11.942h-221.829z" fill="#5290db"/></g></g><g><g><path d="m17.086 168.255h25.104v11.942h-25.104z" fill="#fcdd86"/></g></g><g><g><path d="m236.79 216.692h-217.58c-8.408 0-15.249-6.84-15.249-15.248v-159.353c0-8.408 6.84-15.249 15.249-15.249h217.58c8.408 0 15.249 6.841 15.249 15.249v159.354c-.001 8.408-6.841 15.247-15.249 15.247zm-217.58-184.85c-5.651 0-10.249 4.598-10.249 10.249v159.354c0 5.65 4.598 10.248 10.249 10.248h217.58c5.651 0 10.249-4.598 10.249-10.248v-159.354c0-5.651-4.598-10.249-10.249-10.249z"/></g></g><g><g><path d="m17.085 182.083c-1.381 0-2.5-1.119-2.5-2.5v-137.492c0-2.55 2.075-4.625 4.625-4.625h217.58c2.55 0 4.625 2.075 4.625 4.625v137.326c0 1.381-1.119 2.5-2.5 2.5s-2.5-1.119-2.5-2.5v-136.951h-216.83v137.117c0 1.381-1.119 2.5-2.5 2.5z"/></g></g><g><g><path d="m57.263 112.245h31.475c1.271 0 2.302 1.031 2.302 2.302v29.906c0 1.271-1.031 2.302-2.302 2.302h-31.475c-1.271 0-2.302-1.031-2.302-2.302v-29.906c0-1.271 1.03-2.302 2.302-2.302z" fill="#70d6f9"/></g></g><g><g><path d="m112.263 112.245h31.475c1.271 0 2.302 1.031 2.302 2.302v29.906c0 1.271-1.031 2.302-2.302 2.302h-31.475c-1.271 0-2.302-1.031-2.302-2.302v-29.906c0-1.271 1.03-2.302 2.302-2.302z" fill="#fc8c48"/></g></g><g><g><path d="m167.263 112.245h31.475c1.271 0 2.302 1.031 2.302 2.302v29.906c0 1.271-1.031 2.302-2.302 2.302h-31.475c-1.271 0-2.302-1.031-2.302-2.302v-29.906c0-1.271 1.03-2.302 2.302-2.302z" fill="#3a70bf"/></g></g><g><g><path d="m160.855 70.395h-65.71c-3.66 0-6.627 2.967-6.627 6.626 0 3.66 2.967 6.627 6.627 6.627h65.709c3.66 0 6.627-2.967 6.627-6.627.001-3.659-2.966-6.626-6.626-6.626z" fill="#fcdd86"/></g></g><g><g><path d="m102.61 70.395h-7.465c-3.66 0-6.627 2.967-6.627 6.626 0 3.66 2.967 6.627 6.627 6.627h7.465z" fill="#f5c84c"/></g></g><g><g><path d="m88.737 146.755c1.271 0 2.302-1.031 2.302-2.302v-8.767l-6.77-6.77c-.899-.899-2.356-.899-3.255 0l-17.839 17.839z" fill="#b2e26d"/></g></g><g><g><path d="m75.975 133.955-10.529-10.529c-.899-.899-2.356-.899-3.255 0l-7.23 7.23v13.797c0 1.271 1.031 2.302 2.302 2.302h5.912z" fill="#87d147"/></g></g><g><g><path d="m143.737 146.755c1.271 0 2.302-1.031 2.302-2.302v-8.767l-6.77-6.77c-.899-.899-2.356-.899-3.255 0l-17.839 17.839z" fill="#fcdd86"/></g></g><g><g><path d="m130.975 133.955-10.529-10.529c-.899-.899-2.356-.899-3.255 0l-7.23 7.23v13.797c0 1.271 1.031 2.302 2.302 2.302h5.912z" fill="#f5c84c"/></g></g><g><g><path d="m198.737 146.755c1.271 0 2.302-1.031 2.302-2.302v-8.767l-6.77-6.77c-.899-.899-2.356-.899-3.255 0l-17.839 17.839z" fill="#9be5f9"/></g></g><g><g><path d="m185.975 133.955-10.529-10.529c-.899-.899-2.356-.899-3.255 0l-7.23 7.23v13.797c0 1.271 1.031 2.302 2.302 2.302h5.912z" fill="#3caadc"/></g></g><g><g><path d="m171.714 256h-87.428c-4.671 0-8.471-3.8-8.471-8.471s3.8-8.472 8.471-8.472h87.429c4.671 0 8.471 3.801 8.471 8.472s-3.801 8.471-8.472 8.471zm-87.428-11.942c-1.914 0-3.471 1.558-3.471 3.472s1.557 3.47 3.471 3.47h87.429c1.914 0 3.471-1.557 3.471-3.471s-1.557-3.472-3.471-3.472h-87.429z"/></g></g><g><g><path d="m152.138 242.917c-1.381 0-2.5-1.119-2.5-2.5v-24.834c0-1.381 1.119-2.5 2.5-2.5s2.5 1.119 2.5 2.5v24.834c0 1.381-1.119 2.5-2.5 2.5z"/></g></g><g><g><path d="m103.862 242.917c-1.381 0-2.5-1.119-2.5-2.5v-25.292c0-1.381 1.119-2.5 2.5-2.5s2.5 1.119 2.5 2.5v25.292c0 1.381-1.119 2.5-2.5 2.5z"/></g></g><g><g><path d="m170.705 12.654c-4.498-.838-8.043-4.31-8.898-8.716-.043-.221-.352-.221-.395 0-.855 4.406-4.4 7.879-8.898 8.716-.226.042-.226.345 0 .387 4.498.838 8.043 4.31 8.898 8.717.043.221.352.221.395 0 .855-4.406 4.4-7.879 8.898-8.717.226-.043.226-.345 0-.387z" fill="#87d147"/></g></g><g><g><path d="m202.903 230.736c-2.586-.482-4.625-2.479-5.116-5.012-.025-.127-.202-.127-.227 0-.492 2.534-2.53 4.531-5.117 5.012-.13.024-.13.198 0 .222 2.586.482 4.625 2.479 5.117 5.012.025.127.202.127.227 0 .492-2.534 2.53-4.531 5.116-5.012.129-.024.129-.198 0-.222z" fill="#f5c84c"/></g></g><g><g><path d="m61.941 238.487h-2.33v-2.33c0-1.744-1.413-3.157-3.157-3.157s-3.157 1.413-3.157 3.157v2.33h-2.329c-1.744 0-3.157 1.413-3.157 3.157s1.413 3.157 3.157 3.157h2.329v2.33c0 1.744 1.413 3.157 3.157 3.157s3.157-1.413 3.157-3.157v-2.33h2.33c1.744 0 3.157-1.413 3.157-3.157s-1.413-3.157-3.157-3.157z" fill="#70d6f9"/></g></g><g><g><circle cx="32.662" cy="227.377" fill="#fc657e" r="3.377"/></g></g><g><g><circle cx="134.662" cy="3.377" fill="#f5c84c" r="3.377"/></g></g><g><g><path d="m248.875 182.697h-241.75c-1.381 0-2.5-1.119-2.5-2.5s1.119-2.5 2.5-2.5h241.75c1.381 0 2.5 1.119 2.5 2.5s-1.119 2.5-2.5 2.5z"/></g></g><g><g><path d="m128 205.983c-4.846 0-8.788-3.942-8.788-8.788s3.942-8.788 8.788-8.788 8.788 3.942 8.788 8.788-3.942 8.788-8.788 8.788zm0-12.576c-2.088 0-3.788 1.699-3.788 3.788s1.699 3.788 3.788 3.788 3.788-1.699 3.788-3.788-1.7-3.788-3.788-3.788z"/></g></g><g><g><path d="m237.813 170.755h-219.688c-1.381 0-2.5-1.119-2.5-2.5s1.119-2.5 2.5-2.5h219.688c1.381 0 2.5 1.119 2.5 2.5s-1.119 2.5-2.5 2.5z"/></g></g><g><g><path d="m42.19 181.875c-1.381 0-2.5-1.119-2.5-2.5v-10.417c0-1.381 1.119-2.5 2.5-2.5s2.5 1.119 2.5 2.5v10.417c0 1.381-1.119 2.5-2.5 2.5z"/></g></g><g><g><path d="m52.5 59h-10c-1.381 0-2.5-1.119-2.5-2.5s1.119-2.5 2.5-2.5h10c1.381 0 2.5 1.119 2.5 2.5s-1.119 2.5-2.5 2.5z"/></g></g><g><g><path d="m88.737 149.255h-31.474c-2.647 0-4.802-2.154-4.802-4.802v-29.906c0-2.647 2.154-4.802 4.802-4.802h31.475c2.647 0 4.802 2.154 4.802 4.802v29.906c-.001 2.648-2.155 4.802-4.803 4.802zm-31.276-5h31.078v-29.51h-31.078zm31.276-29.51h.01z"/></g></g><g><g><path d="m81.008 159.893h-16.016c-1.381 0-2.5-1.119-2.5-2.5s1.119-2.5 2.5-2.5h16.016c1.381 0 2.5 1.119 2.5 2.5s-1.119 2.5-2.5 2.5z"/></g></g><g><g><path d="m143.737 149.255h-31.475c-2.647 0-4.802-2.154-4.802-4.802v-29.906c0-2.647 2.154-4.802 4.802-4.802h31.475c2.647 0 4.802 2.154 4.802 4.802v29.906c0 2.648-2.154 4.802-4.802 4.802zm-31.276-5h31.078v-29.51h-31.078zm31.276-29.51h.01z"/></g></g><g><g><path d="m136.008 159.893h-16.016c-1.381 0-2.5-1.119-2.5-2.5s1.119-2.5 2.5-2.5h16.016c1.381 0 2.5 1.119 2.5 2.5s-1.119 2.5-2.5 2.5z"/></g></g><g><g><path d="m198.737 149.255h-31.475c-2.647 0-4.802-2.154-4.802-4.802v-29.906c0-2.647 2.154-4.802 4.802-4.802h31.475c2.647 0 4.802 2.154 4.802 4.802v29.906c0 2.648-2.154 4.802-4.802 4.802zm-31.276-5h31.078v-29.51h-31.078zm31.276-29.51h.01z"/></g></g><g><g><path d="m191.008 159.893h-16.016c-1.381 0-2.5-1.119-2.5-2.5s1.119-2.5 2.5-2.5h16.016c1.381 0 2.5 1.119 2.5 2.5s-1.119 2.5-2.5 2.5z"/></g></g><g><g><path d="m238.167 100h-220.292c-1.381 0-2.5-1.119-2.5-2.5s1.119-2.5 2.5-2.5h220.292c1.381 0 2.5 1.119 2.5 2.5s-1.119 2.5-2.5 2.5z"/></g></g><g><g><path d="m160.854 86.148h-65.708c-5.033 0-9.127-4.095-9.127-9.127s4.094-9.126 9.126-9.126h65.71c5.032 0 9.126 4.094 9.126 9.126s-4.094 9.127-9.127 9.127zm-65.709-13.252c-2.275 0-4.126 1.851-4.126 4.126s1.852 4.127 4.127 4.127h65.709c2.275 0 4.127-1.852 4.127-4.127s-1.851-4.126-4.126-4.126z"/></g></g><g><g><path d="m102.61 85.292c-1.381 0-2.5-1.119-2.5-2.5v-11.5c0-1.381 1.119-2.5 2.5-2.5s2.5 1.119 2.5 2.5v11.5c0 1.381-1.119 2.5-2.5 2.5z"/></g></g><g><g><path d="m63.918 148.512c-.64 0-1.28-.244-1.768-.732-.977-.977-.977-2.559 0-3.535l17.096-17.096c1.872-1.871 4.918-1.872 6.79-.001l6.217 6.217c.977.976.977 2.559 0 3.535-.977.977-2.559.977-3.536 0l-6.076-6.075-16.956 16.955c-.487.488-1.127.732-1.767.732z"/></g></g><g><g><path d="m75.445 135.926c-.64 0-1.28-.244-1.768-.732l-9.859-9.859-6.586 6.586c-.977.977-2.559.977-3.536 0-.977-.976-.977-2.559 0-3.535l6.726-6.727c1.873-1.871 4.918-1.872 6.791-.001l10 10.001c.977.977.977 2.56 0 3.535-.488.488-1.128.732-1.768.732z"/></g></g><g><g><path d="m118.58 148.851c-.64 0-1.28-.244-1.768-.732-.977-.977-.977-2.559 0-3.535l17.434-17.435c1.872-1.871 4.918-1.872 6.79-.001l6.458 6.458c.977.977.977 2.559 0 3.535-.976.977-2.56.977-3.535 0l-6.317-6.316-17.294 17.294c-.489.487-1.129.732-1.768.732z"/></g></g><g><g><path d="m130.594 136.074c-.64 0-1.28-.244-1.768-.732l-10.008-10.008-6.555 6.554c-.976.977-2.559.977-3.536 0-.976-.977-.976-2.56 0-3.535l6.695-6.694c1.872-1.871 4.918-1.872 6.79-.001l10.148 10.149c.977.977.977 2.56 0 3.535-.486.488-1.127.732-1.766.732z"/></g></g><g><g><path d="m173.84 148.59c-.64 0-1.28-.244-1.768-.732-.977-.977-.977-2.559 0-3.535l17.174-17.174c1.872-1.871 4.918-1.872 6.79-.001l6.311 6.311c.977.976.977 2.559 0 3.535-.977.977-2.559.977-3.536 0l-6.17-6.169-17.034 17.033c-.487.488-1.128.732-1.767.732z"/></g></g><g><g><path d="m185.549 136.029c-.64 0-1.28-.244-1.768-.732l-9.963-9.963-6.555 6.554c-.976.977-2.559.977-3.536 0-.976-.977-.976-2.56 0-3.535l6.695-6.694c1.872-1.871 4.918-1.872 6.79-.001l10.104 10.104c.977.977.977 2.56 0 3.535-.487.488-1.128.732-1.767.732z"/></g></g></g></g></svg>