<?xml version="1.0" encoding="iso-8859-1"?>
<!-- Generator: Adobe Illustrator 19.0.0, SVG Export Plug-In . SVG Version: 6.00 Build 0)  -->
<svg version="1.1" id="Capa_1" xmlns="http://www.w3.org/2000/svg" xmlns:xlink="http://www.w3.org/1999/xlink" x="0px" y="0px"
	 viewBox="0 0 512 512" style="enable-background:new 0 0 512 512;" xml:space="preserve">
<path style="fill:#927266;" d="M485.042,25.166H87.258c-2.66,0-5.047,1.631-6.015,4.108L60.301,82.885v345.088
	c0,9.566,7.755,17.32,17.32,17.32H494.68c9.566,0,17.32-7.755,17.32-17.32V82.885l-20.943-53.611
	C490.09,26.797,487.702,25.166,485.042,25.166z"/>
<path style="fill:#82635A;" d="M494.68,445.293H77.621c-9.566,0-17.32-7.755-17.32-17.32V82.886H512v345.088
	C512,437.539,504.245,445.293,494.68,445.293z"/>
<path style="fill:#72544E;" d="M466.51,82.885v311.864c0,15.538-12.596,28.134-28.134,28.134H77.621
	c-9.566,0-17.32-7.754-17.32-17.32v22.41c0,9.566,7.755,17.32,17.32,17.32H494.68c9.566,0,17.32-7.755,17.32-17.32V82.885H466.51z"
	/>
<g>
	<path id="SVGCleanerId_0" style="fill:#FED9A8;" d="M315.864,246.969c2.796,9.097-2.316,18.652-11.318,21.439l-74.613,23.093
		l4.4,1.794l49.79,20.302l82.415,33.605c9.999,4.077,14.8,15.489,10.723,25.488l0,0c-4.077,9.999-15.489,14.8-25.488,10.723
		l19.112,7.793c9.999,4.077,14.8,15.489,10.723,25.488l0,0c-4.077,9.999-15.489,14.8-25.488,10.723l-19.112-7.793
		c9.882,4.03,14.687,15.223,10.862,25.137c-3.946,10.227-15.885,15.047-26.035,10.908l-15.938-6.499
		c9.999,4.077,14.8,15.489,10.723,25.488l0,0c-4.077,9.999-15.489,14.8-25.488,10.723l-144.35-58.859
		c-14.184-5.783-26.657-15.09-36.24-27.04l0,0c-9.583-11.95-22.056-21.257-36.24-27.04l-59.857-24.407l41.837-102.604l51.817,21.128
		c17.345,7.073,187.458-31.239,187.458-31.239C304.302,233.485,313.24,238.428,315.864,246.969z"/>
</g>
<g>
	<path id="SVGCleanerId_0_1_" style="fill:#FED9A8;" d="M315.864,246.969c2.796,9.097-2.316,18.652-11.318,21.439l-74.613,23.093
		l4.4,1.794l49.79,20.302l82.415,33.605c9.999,4.077,14.8,15.489,10.723,25.488l0,0c-4.077,9.999-15.489,14.8-25.488,10.723
		l19.112,7.793c9.999,4.077,14.8,15.489,10.723,25.488l0,0c-4.077,9.999-15.489,14.8-25.488,10.723l-19.112-7.793
		c9.882,4.03,14.687,15.223,10.862,25.137c-3.946,10.227-15.885,15.047-26.035,10.908l-15.938-6.499
		c9.999,4.077,14.8,15.489,10.723,25.488l0,0c-4.077,9.999-15.489,14.8-25.488,10.723l-144.35-58.859
		c-14.184-5.783-26.657-15.09-36.24-27.04l0,0c-9.583-11.95-22.056-21.257-36.24-27.04l-59.857-24.407l41.837-102.604l51.817,21.128
		c17.345,7.073,187.458-31.239,187.458-31.239C304.302,233.485,313.24,238.428,315.864,246.969z"/>
</g>
<g>
	<path id="SVGCleanerId_0_2_" style="fill:#FED9A8;" d="M315.864,246.969c2.796,9.097-2.316,18.652-11.318,21.439l-74.613,23.093
		l4.4,1.794l49.79,20.302l82.415,33.605c9.999,4.077,14.8,15.489,10.723,25.488l0,0c-4.077,9.999-15.489,14.8-25.488,10.723
		l19.112,7.793c9.999,4.077,14.8,15.489,10.723,25.488l0,0c-4.077,9.999-15.489,14.8-25.488,10.723l-19.112-7.793
		c9.882,4.03,14.687,15.223,10.862,25.137c-3.946,10.227-15.885,15.047-26.035,10.908l-15.938-6.499
		c9.999,4.077,14.8,15.489,10.723,25.488l0,0c-4.077,9.999-15.489,14.8-25.488,10.723l-144.35-58.859
		c-14.184-5.783-26.657-15.09-36.24-27.04l0,0c-9.583-11.95-22.056-21.257-36.24-27.04l-59.857-24.407l41.837-102.604l51.817,21.128
		c17.345,7.073,187.458-31.239,187.458-31.239C304.302,233.485,313.24,238.428,315.864,246.969z"/>
</g>
<g>
	<path style="fill:#F4C892;" d="M316.637,474.616c0.025-0.062,0.05-0.123,0.074-0.185c0.01-0.025,0.019-0.05,0.029-0.074
		c0.02-0.052,0.04-0.103,0.059-0.154c0.011-0.03,0.022-0.059,0.033-0.089c0.017-0.046,0.034-0.092,0.051-0.138
		c0.013-0.034,0.025-0.069,0.037-0.103c0.015-0.041,0.03-0.082,0.044-0.123c0.012-0.035,0.024-0.07,0.036-0.105
		c0.014-0.042,0.029-0.084,0.043-0.126c0.012-0.036,0.024-0.073,0.037-0.109c0.013-0.039,0.025-0.077,0.038-0.116
		c0.012-0.038,0.025-0.076,0.037-0.114c0.012-0.039,0.025-0.078,0.037-0.117c0.011-0.037,0.023-0.073,0.034-0.11
		c0.012-0.041,0.025-0.082,0.037-0.123c0.011-0.036,0.022-0.073,0.032-0.109c0.011-0.038,0.022-0.076,0.033-0.114
		c0.012-0.041,0.023-0.082,0.035-0.122c0.01-0.035,0.019-0.071,0.029-0.106c0.011-0.041,0.022-0.082,0.033-0.123
		c0.009-0.036,0.019-0.072,0.028-0.107c0.011-0.042,0.021-0.083,0.032-0.124c0.009-0.036,0.018-0.071,0.026-0.107
		c0.01-0.042,0.02-0.083,0.03-0.124c0.007-0.031,0.015-0.062,0.022-0.094c0.011-0.046,0.022-0.093,0.032-0.139
		c0.004-0.017,0.008-0.035,0.012-0.052c0.042-0.188,0.081-0.377,0.117-0.566c0.004-0.02,0.008-0.04,0.012-0.06
		c0.01-0.055,0.02-0.109,0.03-0.164c0.004-0.021,0.008-0.043,0.012-0.064c0.01-0.057,0.02-0.114,0.029-0.171
		c0.003-0.018,0.006-0.036,0.009-0.054c0.009-0.057,0.019-0.115,0.027-0.173c0.003-0.019,0.006-0.037,0.009-0.056
		c0.009-0.059,0.018-0.118,0.026-0.177c0.002-0.016,0.005-0.032,0.007-0.048c0.009-0.063,0.017-0.126,0.025-0.189
		c0.001-0.01,0.003-0.021,0.004-0.031c0.008-0.066,0.017-0.132,0.024-0.198c0.001-0.008,0.002-0.017,0.003-0.025
		c0.008-0.068,0.016-0.135,0.023-0.203c0.001-0.006,0.001-0.012,0.002-0.018c0.007-0.07,0.014-0.141,0.021-0.211
		c0-0.002,0-0.005,0.001-0.007c0.719-7.68-3.195-15.254-10.18-19.017c-0.109-0.059-0.219-0.11-0.328-0.166
		c-0.49-0.252-0.989-0.491-1.508-0.705c-0.174-0.073-0.351-0.148-0.521-0.217l-73.165-29.833l0,0
		c-3.868,9.487,0.66,20.316,10.131,24.225l58.03,23.951c6.125,2.498,10.323,7.973,11.701,13.967c1.879-1.825,3.42-4.059,4.472-6.64
		l0,0l0,0C316.626,474.645,316.631,474.63,316.637,474.616z"/>
	<path style="fill:#F4C892;" d="M229.934,291.501L229.934,291.501L229.934,291.501z"/>
	<path style="fill:#F4C892;" d="M374.893,376.92c0.942-1.278,1.742-2.692,2.369-4.23l0,0c4.077-10-0.724-21.411-10.723-25.488
		l-82.415-33.605l-49.79-20.302l-4.4-1.794c11.11,19.246,28.31,34.247,48.888,42.638l87.717,35.767
		C369.608,371.158,372.754,374.229,374.893,376.92z"/>
	<path style="fill:#F4C892;" d="M381.87,402.603c-0.054-0.147-0.109-0.293-0.166-0.439c-0.029-0.073-0.058-0.145-0.087-0.218
		c-0.059-0.145-0.12-0.289-0.182-0.432c-0.187-0.43-0.39-0.854-0.607-1.27c-0.109-0.208-0.221-0.414-0.337-0.618
		c-0.077-0.136-0.157-0.271-0.237-0.406c-0.081-0.134-0.163-0.268-0.247-0.4s-0.17-0.264-0.257-0.394
		c-0.829-1.239-1.802-2.389-2.909-3.421c-0.058-0.054-0.117-0.108-0.176-0.162c-0.354-0.322-0.721-0.632-1.101-0.929
		c-0.063-0.05-0.127-0.099-0.191-0.148c-0.128-0.098-0.258-0.194-0.388-0.288c-0.065-0.047-0.131-0.094-0.197-0.141
		c-1.19-0.839-2.494-1.557-3.9-2.131l-19.112-7.793h0.001l-89.958-36.681l0,0c-3.981,9.763,0.717,20.904,10.487,24.869
		l98.583,40.008c3.968,1.618,7.183,4.544,9.286,7.929c0.547-0.893,1.029-1.843,1.437-2.844l0,0c0.764-1.875,1.217-3.799,1.381-5.716
		c0.014-0.16,0.025-0.319,0.035-0.479C383.191,407.787,382.783,405.1,381.87,402.603z"/>
</g>
<path style="fill:#2D5872;" d="M49.982,230.34c1.555-3.813,5.906-5.644,9.719-4.089l40.423,16.483
	c3.813,1.555,5.644,5.906,4.089,9.719L54.785,373.675c-1.555,3.813-5.906,5.644-9.719,4.089L4.643,361.281
	c-3.813-1.555-5.644-5.906-4.089-9.719L49.982,230.34"/>
<path style="fill:#1D4859;" d="M100.125,242.734l-17.439-7.111l-46.13,113.133c-1.555,3.813-5.906,5.643-9.719,4.089l-22.984-9.372
	l-3.298,8.089c-1.555,3.813,0.276,8.164,4.089,9.719l40.423,16.483c3.813,1.555,8.164-0.276,9.719-4.089l49.429-121.222
	C105.768,248.64,103.938,244.288,100.125,242.734z"/>
<path style="fill:#FFB125;" d="M324.067,25.166h-75.832l-13.356,57.72v121.92c0,3.329,3.931,5.098,6.422,2.89l42.289-37.464
	c1.462-1.295,3.66-1.295,5.121,0L331,207.696c2.492,2.208,6.422,0.439,6.422-2.89V82.885L324.067,25.166z"/>
<path style="fill:#FF901D;" d="M331,207.696l-42.289-37.464c-1.462-1.295-3.66-1.295-5.121,0l-42.289,37.464
	c-2.492,2.207-6.422,0.438-6.422-2.89V82.886h102.544v121.92C337.422,208.135,333.492,209.904,331,207.696z"/>
<path style="fill:#F4C892;" d="M346.576,447.461c0.441-0.759,0.834-1.557,1.173-2.393c0.01-0.025,0.02-0.05,0.03-0.074
	c0.024-0.061,0.048-0.121,0.072-0.182c0.016-0.042,0.032-0.084,0.048-0.125c0.01-0.027,0.02-0.053,0.03-0.08
	c0.019-0.051,0.038-0.102,0.057-0.153c0.009-0.025,0.019-0.051,0.028-0.076c0.019-0.052,0.037-0.104,0.056-0.157
	c0.008-0.023,0.017-0.047,0.025-0.07c0.018-0.052,0.036-0.105,0.054-0.158c0.009-0.025,0.017-0.051,0.026-0.076
	c0.015-0.045,0.03-0.091,0.045-0.136c0.01-0.032,0.021-0.063,0.031-0.095c0.023-0.073,0.047-0.147,0.069-0.22
	c0.012-0.038,0.023-0.076,0.034-0.114c0.011-0.036,0.022-0.072,0.033-0.108c0.014-0.047,0.027-0.093,0.041-0.14
	c0.008-0.028,0.016-0.057,0.024-0.085c0.013-0.045,0.025-0.09,0.037-0.135c0.008-0.031,0.017-0.062,0.026-0.093
	c0.012-0.045,0.024-0.09,0.036-0.135c0.008-0.029,0.015-0.059,0.023-0.088c0.013-0.049,0.025-0.099,0.037-0.148
	c0.006-0.023,0.011-0.046,0.017-0.07c0.013-0.053,0.026-0.106,0.038-0.16c0.005-0.021,0.01-0.042,0.015-0.062
	c0.013-0.054,0.025-0.109,0.037-0.164c0.004-0.019,0.008-0.037,0.012-0.056c0.013-0.057,0.025-0.114,0.037-0.171
	c0.003-0.012,0.005-0.024,0.008-0.037c0.029-0.137,0.056-0.273,0.081-0.41l0,0c1.664-8.932-3.105-18.103-11.847-21.667
	l-89.957-36.68l0,0c-3.829,9.392,0.704,20.107,10.111,23.898l79.846,32.182C341.167,440.72,344.479,443.854,346.576,447.461z"/>
<g>
</g>
<g>
</g>
<g>
</g>
<g>
</g>
<g>
</g>
<g>
</g>
<g>
</g>
<g>
</g>
<g>
</g>
<g>
</g>
<g>
</g>
<g>
</g>
<g>
</g>
<g>
</g>
<g>
</g>
</svg>
