<svg id="Layer_1" height="512" viewBox="0 0 256 256" width="512" xmlns="http://www.w3.org/2000/svg"><g><g><g><path d="m191.282 196.422-50.205 39.946c-6.845 5.446-16.524 5.514-23.444.163l-51.717-39.985c-23.487-18.159-36.84-43.682-36.84-70.418v-51.733c0-7.251 4.129-13.87 10.642-17.059l81.492-39.9c5.352-2.62 11.624-2.577 16.939.117l78.365 39.719c6.384 3.236 10.407 9.785 10.407 16.942v52.73c.002 26.258-12.88 51.369-35.639 69.478z" fill="#478cf7"/></g><g><path d="m216.516 57.272-1.147-.581c1.008 2.335 1.554 4.888 1.554 7.523v52.73c0 26.258-12.881 51.369-35.641 69.478l-50.205 39.946c-6.845 5.446-16.524 5.514-23.444.163l-51.717-39.984c-1.696-1.312-3.339-2.661-4.928-4.047 4.38 5.04 9.37 9.75 14.928 14.047l51.717 39.984c6.92 5.35 16.599 5.283 23.444-.163l50.205-39.946c22.759-18.109 35.641-43.219 35.641-69.478v-52.73c0-7.157-4.023-13.706-10.407-16.942z" fill="#377de2"/></g><g><path d="m218.624 58.518c2.11 3.096 3.298 6.806 3.298 10.696v52.73c0 26.258-12.881 51.369-35.641 69.478l-50.205 39.946c-6.845 5.446-16.524 5.514-23.444.163l-51.717-39.984c-2.661-2.057-5.191-4.209-7.587-6.446 3.792 4.066 7.996 7.897 12.587 11.446l51.717 39.984c6.92 5.35 16.599 5.283 23.444-.163l50.205-39.946c22.759-18.109 35.641-43.219 35.641-69.478v-52.73c.001-6.333-3.15-12.189-8.298-15.696z" fill="#2266d3"/></g><g><path d="m35.08 128.13c-1.1 0-2-.9-2-2s.9-2 2-2 2 .9 2 2-.9 2-2 2zm0-8c-1.1 0-2-.9-2-2v-43.73c0-5.68 3.3-10.97 8.4-13.47l81.49-39.9c.97-.48 2.2-.05 2.68.92.48.99.07 2.19-.92 2.67l-81.49 39.9c-3.75 1.83-6.17 5.7-6.16 9.88v43.73c0 1.1-.9 2-2 2z" fill="#5e9cf7"/></g></g><g><g><g><path d="m167.586 185.532h-79.172c-2.869 0-5.195-2.326-5.195-5.195v-66.405c0-2.869 2.326-5.195 5.195-5.195h79.171c2.869 0 5.195 2.326 5.195 5.195v66.405c0 2.869-2.325 5.195-5.194 5.195z" fill="#ffa91a"/></g><g><path d="m167.586 108.738h-4.805v61.599c0 2.869-2.326 5.195-5.195 5.195h-74.366v4.805c0 2.869 2.326 5.195 5.195 5.195h79.171c2.869 0 5.195-2.326 5.195-5.195v-66.405c-.001-2.868-2.326-5.194-5.195-5.194z" fill="#f79219"/></g><g><g><path d="m165.971 108.738h-12.987v-22.879c0-13.776-11.208-24.984-24.984-24.984s-24.984 11.208-24.984 24.984v22.879h-12.987v-22.879c0-20.937 17.033-37.971 37.971-37.971s37.971 17.033 37.971 37.971z" fill="#e6e7e8"/></g></g><g><g><path d="m152.324 56.64c5.462 6.578 8.751 15.021 8.751 24.219v22.879h-7.987v5h12.987v-22.879c0-11.739-5.356-22.249-13.751-29.219z" fill="#d1d3d4"/></g></g></g><g><path d="m140.232 161.921-6.457-18.03c2.814-1.871 4.671-5.068 4.671-8.701 0-5.769-4.677-10.445-10.445-10.445s-10.445 4.676-10.445 10.445c0 3.633 1.857 6.83 4.671 8.701l-6.457 18.03c-.933 2.606.998 5.349 3.766 5.349h16.932c2.766-.001 4.697-2.744 3.764-5.349z" fill="#995222"/></g><g><path d="m140.232 161.921-6.457-18.03c2.814-1.871 4.671-5.068 4.671-8.701 0-3.95-2.193-7.386-5.427-9.161.813 1.487 1.277 3.192 1.277 5.006 0 3.633-1.857 6.83-4.671 8.701l6.457 18.03c.933 2.606-.998 5.349-3.766 5.349h-16.775c-.089 2.186 1.648 4.155 3.993 4.155h16.932c2.768-.001 4.699-2.744 3.766-5.349z" fill="#8c3f0a"/></g></g></g></svg>