<?xml version="1.0" encoding="iso-8859-1"?>
<!-- Generator: Adobe Illustrator 19.0.0, SVG Export Plug-In . SVG Version: 6.00 Build 0)  -->
<svg version="1.1" id="Capa_1" xmlns="http://www.w3.org/2000/svg" xmlns:xlink="http://www.w3.org/1999/xlink" x="0px" y="0px"
	 viewBox="0 0 512.076 512.076" style="enable-background:new 0 0 512.076 512.076;" xml:space="preserve">
<g transform="translate(-1)">
	<rect x="186.417" y="381.235" style="fill:#95A5A5;" width="141.241" height="88.276"/>
	<path style="fill:#3D324C;" d="M513.038,47.102v281.212h-512V47.102C0.119,26.656,15.905,9.314,36.349,8.314h441.379
		C498.171,9.314,513.957,26.656,513.038,47.102z"/>
	<g>
		<path style="fill:#BDC3C7;" d="M513.038,319.486v35.31c0,19.501-15.809,35.31-35.31,35.31H36.349
			c-19.501,0-35.31-15.809-35.31-35.31v-35.31H513.038z"/>
		<path style="fill:#BDC3C7;" d="M133.452,451.9h247.172c9.751,0,17.655,7.905,17.655,17.655v17.655H115.797v-17.655
			C115.797,459.805,123.701,451.9,133.452,451.9z"/>
	</g>
	<circle style="fill:#F0C419;" cx="115.797" cy="116.408" r="70.621"/>
	<circle style="fill:#F3D55B;" cx="115.797" cy="107.58" r="26.483"/>
	<g>
		<path style="fill:#CC66A1;" d="M257.038,231.211H36.349c-4.875,0-8.828-3.952-8.828-8.828s3.952-8.828,8.828-8.828h220.69
			c4.875,0,8.828,3.952,8.828,8.828S261.914,231.211,257.038,231.211z"/>
		<path style="fill:#CC66A1;" d="M477.728,81.142h-256c-4.875,0-8.828-3.952-8.828-8.828s3.952-8.828,8.828-8.828h256
			c4.875,0,8.828,3.952,8.828,8.828S482.603,81.142,477.728,81.142z"/>
		<path style="fill:#CC66A1;" d="M477.728,116.452h-256c-4.875,0-8.828-3.952-8.828-8.828c0-4.875,3.952-8.828,8.828-8.828h256
			c4.875,0,8.828,3.952,8.828,8.828C486.555,112.5,482.603,116.452,477.728,116.452z"/>
		<path style="fill:#CC66A1;" d="M310.004,151.762h-88.276c-4.875,0-8.828-3.952-8.828-8.828s3.952-8.828,8.828-8.828h88.276
			c4.875,0,8.828,3.952,8.828,8.828S314.879,151.762,310.004,151.762z"/>
	</g>
	<g>
		<path style="fill:#F3D55B;" d="M45.176,257.693h70.621c4.875,0,8.828,3.952,8.828,8.828v52.966H36.349v-52.966
			C36.349,261.646,40.301,257.693,45.176,257.693z"/>
		<path style="fill:#F3D55B;" d="M168.762,257.693h70.621c4.875,0,8.828,3.952,8.828,8.828v52.966h-88.276v-52.966
			C159.935,261.646,163.887,257.693,168.762,257.693z"/>
	</g>
	<path style="fill:#E57E25;" d="M159.935,169.417c0.015,0.737-0.015,1.474-0.088,2.207c-25.754,20.599-62.345,20.599-88.099,0
		c-0.073-0.733-0.103-1.47-0.088-2.207c0.051-18.041,11.003-34.261,27.719-41.048h0.088c9.544,7.65,23.118,7.65,32.662,0h0.088
		C148.931,135.157,159.884,151.377,159.935,169.417z"/>
	<path style="fill:#46B29D;" d="M495.383,185.969c9.751,0,17.655,7.904,17.655,17.655V316.75c0,0,0,116.886-123.586,187.012
		C265.866,433.636,265.866,316.75,265.866,316.75V203.624c0-9.751,7.904-17.655,17.655-17.655H495.383z"/>
	<path style="fill:#65DDB9;" d="M389.452,462.211c-87.208-59.445-88.276-144.561-88.276-145.47V221.28h176.552v95.462
		C477.675,320.237,475.353,403.649,389.452,462.211z"/>
	<g>
		<path style="fill:#FFFFFF;" d="M389.452,471.03c-3.873,0.001-7.294-2.522-8.437-6.222c-1.143-3.7,0.26-7.714,3.459-9.897
			c82.176-56.011,84.374-134.974,84.427-138.293v-86.51c-4.875,0-8.828-3.952-8.828-8.828s3.952-8.828,8.828-8.828
			c9.751,0,17.655,7.904,17.655,17.655v86.634c-0.062,3.849-2.489,91.648-92.134,152.717
			C392.961,470.47,391.229,471.018,389.452,471.03z"/>
		<path style="fill:#FFFFFF;" d="M336.486,420.13c-2.833,0.004-5.496-1.352-7.159-3.646c-21.662-29-34.501-63.631-36.979-99.743
			v-86.634c0-9.751,7.905-17.655,17.655-17.655h97.103c4.875,0,8.828,3.952,8.828,8.828s-3.952,8.828-8.828,8.828h-97.103v86.634
			c2.543,32.372,14.204,63.362,33.633,89.379c1.948,2.687,2.225,6.239,0.716,9.195C342.844,418.271,339.805,420.131,336.486,420.13z
			"/>
	</g>
	<path style="fill:#FF5364;" d="M370.693,362.521c-2.341-0.001-4.586-0.931-6.241-2.586l-16.552-16.552
		c-3.345-3.464-3.298-8.97,0.108-12.375c3.405-3.405,8.911-3.453,12.375-0.108l10.311,10.311l65.483-65.483
		c3.464-3.345,8.97-3.298,12.375,0.108c3.405,3.405,3.453,8.911,0.108,12.375l-71.724,71.724
		C375.279,361.59,373.034,362.52,370.693,362.521z"/>
</g>
<g>
</g>
<g>
</g>
<g>
</g>
<g>
</g>
<g>
</g>
<g>
</g>
<g>
</g>
<g>
</g>
<g>
</g>
<g>
</g>
<g>
</g>
<g>
</g>
<g>
</g>
<g>
</g>
<g>
</g>
</svg>
