<svg height="512" viewBox="0 0 64 64" width="512" xmlns="http://www.w3.org/2000/svg"><g id="Layer_37" data-name="Layer 37"><circle cx="32" cy="32" fill="#e6e7e8" r="29"/><circle cx="32" cy="32" fill="#d1d3d4" r="25"/><path d="m32.145 3a29.023 29.023 0 0 1 .69 4.017 25 25 0 1 1 -24.911 31.712 29.35 29.35 0 0 1 -3.924.271c-.049 0-.1 0-.145 0a29 29 0 1 0 28.29-36z" fill="#d1d3d4"/><path d="m32 57a25 25 0 0 0 .835-49.979 29.013 29.013 0 0 1 .165 2.979 29 29 0 0 1 -25.076 28.729 25 25 0 0 0 24.076 18.271z" fill="#bcbec0"/><path d="m37 32.66-5 4.99-5-4.99v7.34h-10a17 17 0 0 0 30 0h-10z" fill="#414042"/><path d="m32 15a17.027 17.027 0 0 0 -16.53 21h7.53v-13l9 9 9-9v13h7.53a17.027 17.027 0 0 0 -16.53-21z" fill="#ff9811"/><g fill="#231f20"><path d="m32 62a30 30 0 1 1 30-30 30.034 30.034 0 0 1 -30 30zm0-58a28 28 0 1 0 28 28 28.032 28.032 0 0 0 -28-28z"/><path d="m32 58a26 26 0 1 1 26-26 26.029 26.029 0 0 1 -26 26zm0-50a24 24 0 1 0 24 24 24.028 24.028 0 0 0 -24-24z"/><path d="m32 50a17.971 17.971 0 0 1 -15.882-9.529 1 1 0 0 1 .882-1.471h9v-6.34a1 1 0 0 1 1.706-.708l4.294 4.285 4.294-4.285a1 1 0 0 1 1.706.708v6.34h9a1 1 0 0 1 .882 1.471 17.971 17.971 0 0 1 -15.882 9.529zm-13.229-9a16 16 0 0 0 26.458 0h-8.229a1 1 0 0 1 -1-1v-4.929l-3.294 3.287a1 1 0 0 1 -1.412 0l-3.294-3.287v4.929a1 1 0 0 1 -1 1z"/><path d="m48.53 37h-7.53a1 1 0 0 1 -1-1v-10.586l-7.293 7.293a1 1 0 0 1 -1.414 0l-7.293-7.293v10.586a1 1 0 0 1 -1 1h-7.53a1 1 0 0 1 -.972-.765 18 18 0 1 1 35 0 1 1 0 0 1 -.968.765zm-6.53-2h5.723a16.207 16.207 0 0 0 .277-3 16 16 0 0 0 -32 0 16.207 16.207 0 0 0 .277 3h5.723v-12a1 1 0 0 1 1.707-.707l8.293 8.293 8.293-8.293a1 1 0 0 1 1.707.707z"/></g></g></svg>