<svg id="Filled_Expand" height="512" viewBox="0 0 64 64" width="512" xmlns="http://www.w3.org/2000/svg" data-name="Filled Expand"><path d="m12 7v35.561a12 12 0 0 0 2.889 7.809l7.911 9.23a4 4 0 0 0 3.04 1.4h12.32a4 4 0 0 0 3.04-1.4l7.914-9.233a12 12 0 0 0 2.886-7.806v-35.561a4 4 0 0 0 -4-4h-32a4 4 0 0 0 -4 4z" fill="#5a646b"/><path d="m49.111 50.37a12 12 0 0 0 2.889-7.809v-35.561a3.961 3.961 0 0 0 -.36-1.64 3.961 3.961 0 0 0 -1.64-.36h-33a3 3 0 0 0 -3 3v33.524a12 12 0 0 0 2.932 7.859l8.868 10.237a4 4 0 0 0 3.027 1.38h9.333a4 4 0 0 0 3.04-1.4z" fill="#445255"/><path d="m17 10h30v26h-30z" fill="#65def0"/><path d="m17 10v26h2v-24h28v-2z" fill="#2bced6"/><rect fill="#5a646b" height="5" rx="2" width="10" x="17" y="41"/><rect fill="#5a646b" height="5" rx="2" width="10" x="37" y="41"/><g fill="#eafaff"><path d="m23 20h6v6h-6z"/><path d="m29 20h6v6h-6z"/><path d="m35 20h6v6h-6z"/><path d="m23 14h6v6h-6z"/><path d="m29 14h6v6h-6z"/><path d="m35 14h6v6h-6z"/><path d="m23 26h6v6h-6z"/><path d="m29 26h6v6h-6z"/><path d="m35 26h6v6h-6z"/></g><path d="m48 2h-32a5.006 5.006 0 0 0 -5 5v35.561a13 13 0 0 0 3.13 8.46l7.913 9.233a5 5 0 0 0 3.797 1.746h12.32a4.993 4.993 0 0 0 3.8-1.746l7.915-9.233a13.007 13.007 0 0 0 3.125-8.46v-35.561a5.006 5.006 0 0 0 -5-5zm3 40.561a11.01 11.01 0 0 1 -2.647 7.159l-7.916 9.232a2.993 2.993 0 0 1 -2.277 1.048h-12.32a3 3 0 0 1 -2.278-1.048l-7.914-9.232a11.005 11.005 0 0 1 -2.648-7.159v-35.561a3 3 0 0 1 3-3h32a3 3 0 0 1 3 3z"/><path d="m47 9h-30a1 1 0 0 0 -1 1v26a1 1 0 0 0 1 1h30a1 1 0 0 0 1-1v-26a1 1 0 0 0 -1-1zm-1 26h-28v-24h28z"/><path d="m25 40h-6a3 3 0 0 0 -3 3v1a3 3 0 0 0 3 3h6a3 3 0 0 0 3-3v-1a3 3 0 0 0 -3-3zm1 4a1 1 0 0 1 -1 1h-6a1 1 0 0 1 -1-1v-1a1 1 0 0 1 1-1h6a1 1 0 0 1 1 1z"/><path d="m45 40h-6a3 3 0 0 0 -3 3v1a3 3 0 0 0 3 3h6a3 3 0 0 0 3-3v-1a3 3 0 0 0 -3-3zm1 4a1 1 0 0 1 -1 1h-6a1 1 0 0 1 -1-1v-1a1 1 0 0 1 1-1h6a1 1 0 0 1 1 1z"/><path d="m23 33h18a1 1 0 0 0 1-1v-18a1 1 0 0 0 -1-1h-18a1 1 0 0 0 -1 1v18a1 1 0 0 0 1 1zm13-18h4v4h-4zm0 6h4v4h-4zm0 6h4v4h-4zm-6-12h4v4h-4zm0 6h4v4h-4zm0 6h4v4h-4zm-6-12h4v4h-4zm0 6h4v4h-4zm0 6h4v4h-4z"/></svg>