<svg id="Layer_1" enable-background="new 0 0 512 512" height="512" viewBox="0 0 512 512" width="512" xmlns="http://www.w3.org/2000/svg"><g id="XMLID_1_"><g id="XMLID_3408_"><path id="XMLID_986_" d="m507 367v140h-450l-52-52v-140h450z" fill="#35322b"/><path id="XMLID_1163_" d="m145 5h-140l52 52v258h140v-258z" fill="#c5c2a1"/><path id="XMLID_987_" d="m5 315h450v140h-450z" fill="#504c43"/><path id="XMLID_984_" d="m200 355h200v60h-200z" fill="#9cd3fc"/><path id="XMLID_982_" d="m490 385v70l-18-18v-70z" fill="#504c43"/><g id="XMLID_981_"><path id="XMLID_1481_" d="m295 375h10v20h-10z" fill="#504c43"/></g><g id="XMLID_980_"><path id="XMLID_1480_" d="m315 375h10v20h-10z" fill="#504c43"/></g><g id="XMLID_979_"><path id="XMLID_1479_" d="m335 375h10v20h-10z" fill="#504c43"/></g><g id="XMLID_978_"><path id="XMLID_1478_" d="m355 375h10v20h-10z" fill="#504c43"/></g><path id="XMLID_988_" d="m75 455c-38.7 0-70-31.3-70-70v-380h140v380c0 38.7-31.3 70-70 70z" fill="#d8d6c1"/><circle id="XMLID_985_" cx="75" cy="385" fill="#504c43" r="40"/></g><g id="XMLID_2994_"><g id="XMLID_46_"><path id="XMLID_2630_" d="m202 295h-10v-235.9l-50.5-50.6 7.1-7.1 52 52c.9.9 1.5 2.2 1.5 3.5v238.1z" fill="#272525"/></g><g id="XMLID_441_"><path id="XMLID_2276_" d="m75 460c-41.4 0-75-33.6-75-75v-380c0-2.8 2.2-5 5-5h140c2.8 0 5 2.2 5 5v380c0 41.4-33.6 75-75 75zm-65-450v375c0 35.8 29.2 65 65 65s65-29.2 65-65v-375z" fill="#272525"/></g><g id="XMLID_40_"><path id="XMLID_2275_" d="m455 460h-450v-10h445v-115h10v120c0 2.8-2.2 5-5 5z" fill="#272525"/></g><g id="XMLID_347_"><path id="XMLID_2274_" d="m507 512h-450c-1.3 0-2.6-.5-3.5-1.5l-52-52c-1-.9-1.5-2.2-1.5-3.5v-140h10v137.9l49.1 49.1h442.9v-132.9l-49.1-49.1h-307.9v-10h310c1.3 0 2.6.5 3.5 1.5l52 52c.9.9 1.5 2.2 1.5 3.5v140c0 2.8-2.2 5-5 5z" fill="#272525"/></g><g id="XMLID_3_"><path id="XMLID_2271_" d="m75 430c-24.8 0-45-20.2-45-45s20.2-45 45-45 45 20.2 45 45-20.2 45-45 45zm0-80c-19.3 0-35 15.7-35 35s15.7 35 35 35 35-15.7 35-35-15.7-35-35-35z" fill="#272525"/></g><g id="XMLID_38_"><path id="XMLID_2268_" d="m400 420h-200c-2.8 0-5-2.2-5-5v-60c0-2.8 2.2-5 5-5h200c2.8 0 5 2.2 5 5v60c0 2.8-2.2 5-5 5zm-195-10h190v-50h-190z" fill="#272525"/></g><g id="XMLID_70_"><path id="XMLID_2267_" d="m444.2 476h73.5v10h-73.5z" fill="#272525" transform="matrix(.707 .707 -.707 .707 481 -199.237)"/></g><g id="XMLID_73_"><path id="XMLID_2264_" d="m490 460c-1.3 0-2.6-.5-3.5-1.5l-18-18c-.9-.9-1.5-2.2-1.5-3.5v-70c0-2 1.2-3.8 3.1-4.6s4-.3 5.4 1.1l18 18c.9.9 1.5 2.2 1.5 3.5v70c0 2-1.2 3.8-3.1 4.6-.6.3-1.3.4-1.9.4zm-13-25.1 8 8v-55.9l-8-8z" fill="#272525"/></g><g id="XMLID_39_"><path id="XMLID_2263_" d="m295 375h10v20h-10z" fill="#272525"/></g><g id="XMLID_41_"><path id="XMLID_2261_" d="m315 375h10v20h-10z" fill="#272525"/></g><g id="XMLID_42_"><path id="XMLID_2260_" d="m335 375h10v20h-10z" fill="#272525"/></g><g id="XMLID_43_"><path id="XMLID_2259_" d="m355 375h10v20h-10z" fill="#272525"/></g></g></g></svg>