<svg height="512" viewBox="0 0 256 256" width="512" xmlns="http://www.w3.org/2000/svg"><g id="Layer_24"><g><g><circle cx="44.808" cy="202.849" fill="#3a70bf" r="25.953"/></g><g><circle cx="195.852" cy="202.849" fill="#3a70bf" r="25.953"/></g><g><path d="m21.222 192.02h-16.451c-1.254 0-2.271 1.017-2.271 2.271v6.563c0 1.254 1.017 2.271 2.271 2.271h14.09c-.001-.093-.007-.185-.007-.278 0-3.865.852-7.53 2.368-10.827z" fill="#edf4fc"/></g><g><path d="m68.393 192.02c1.516 3.297 2.368 6.962 2.368 10.829 0 .093-.006.185-.007.278h87.233v-11.107z" fill="#edf4fc"/></g><g><path d="m249.911 192.02h-30.474c1.516 3.297 2.368 6.962 2.368 10.829 0 .093-.006.185-.007.278h28.113c1.982 0 3.589-1.607 3.589-3.589v-3.929c0-1.982-1.607-3.589-3.589-3.589z" fill="#edf4fc"/></g><g><circle cx="157.742" cy="84.014" fill="#70d6f9" r="34.963"/></g><g><path d="m165.753 39.217h-16.023c-1.308 0-2.368-1.06-2.368-2.368v-7.282c0-1.308 1.06-2.368 2.368-2.368h16.023c1.308 0 2.368 1.06 2.368 2.368v7.282c0 1.308-1.06 2.368-2.368 2.368z" fill="#dae6f1"/></g><g><g><path d="m152.204 39.217v10.274c1.804-.287 3.653-.441 5.538-.441s3.734.154 5.538.441v-10.274z" fill="#c7d7e5"/></g></g><g><path d="m180.65 57.614 4.684-7.76c.837-1.386.391-3.188-.995-4.025l-4.462-2.693c-1.386-.837-3.188-.391-4.025.995l-4.604 7.628c3.452 1.446 6.618 3.436 9.402 5.855z" fill="#dae6f1"/></g><g><path d="m243.126 146.37-31.757-31.19c-2.764-2.715-6.483-4.236-10.357-4.236h-20.974c-5.993 4.967-13.672 7.968-22.05 8.026v84.155h11.919c-.001-.093-.007-.184-.007-.278 0-14.334 11.62-25.953 25.953-25.953 10.467 0 19.481 6.2 23.585 15.125h30.474c.088 0 .17.02.257.026v-28.888c-.001-6.313-2.539-12.362-7.043-16.787z" fill="#fc657e"/></g><g><path d="m157.742 118.977c-19.31 0-34.963-15.654-34.963-34.963 0-8.021 2.707-15.405 7.249-21.305h-117.946c-2.765 0-5.007 2.242-5.007 5.007v124.304h14.148c4.104-8.925 13.118-15.125 23.585-15.125s19.481 6.2 23.585 15.125h89.594v-73.049c-.082 0-.163.006-.245.006z" fill="#b27952"/></g><g><g><path d="m212.176 148.909c0-2.148 1.757-3.906 3.905-3.906h9.803l-22.298-21.9c-.687-.675-1.612-1.053-2.575-1.053h-19.884c-1.739 0-3.149 1.41-3.149 3.149v25.911c0 1.739 1.41 3.149 3.149 3.149h31.049z" fill="#70d6f9"/></g></g><g><path d="m227.614 145.004h-11.532c-2.148 0-3.905 1.757-3.905 3.905v8.478c0 2.148 1.757 3.905 3.905 3.905h11.532c2.148 0 3.905-1.757 3.905-3.905v-8.478c0-2.148-1.757-3.905-3.905-3.905z" fill="#edf4fc"/></g><g><path d="m242.292 170.918c-2.397 0-4.341 1.943-4.341 4.341v16.761h11.96c.088 0 .17.02.257.026v-21.128z" fill="#f5c84c"/></g><g><path d="m67.056 62.709h30.949v50.628h-30.949z" fill="#fcdd86"/></g><g><path d="m67.056 62.709h15.943v50.628h-15.943z" fill="#f5c84c"/></g><g><circle cx="157.742" cy="84.014" fill="#edf4fc" r="25.13"/></g><g><circle cx="44.808" cy="202.849" fill="#fcdd86" r="14.46"/></g><g><circle cx="195.852" cy="202.849" fill="#fcdd86" r="14.46"/></g><g><path d="m157.742 58.884c-.087 0-.172.006-.259.007v25.059h25.387c-.035-13.827-11.293-25.066-25.128-25.066z" fill="#fc657e"/></g><g><g><g><path d="m68.8 38.85c-4.5-.8-8-4.3-8.9-8.7 0-.2-.4-.2-.4 0-.9 4.4-4.4 7.9-8.9 8.7-.2 0-.2.3 0 .4 4.5.8 8 4.3 8.9 8.7 0 .2.4.2.4 0 .9-4.4 4.4-7.9 8.9-8.7.2-.1.2-.4 0-.4z" fill="#f5c84c"/></g></g></g><g><g><g><path d="m158.61 221.21c-3.157-.561-5.613-3.017-6.245-6.104 0-.14-.281-.14-.281 0-.632 3.087-3.087 5.543-6.245 6.104-.14 0-.14.21 0 .281 3.157.561 5.613 3.017 6.245 6.104 0 .14.281.14.281 0 .632-3.087 3.087-5.543 6.245-6.104.14-.071.14-.281 0-.281z" fill="#f5c84c"/></g></g></g><g><g><g><path d="m224.7 84.5h-2.3v-2.3c0-1.7-1.4-3.2-3.2-3.2s-3.2 1.4-3.2 3.2v2.3h-2.3c-1.7 0-3.2 1.4-3.2 3.2s1.4 3.2 3.2 3.2h2.3v2.3c0 1.7 1.4 3.2 3.2 3.2s3.2-1.4 3.2-3.2v-2.3h2.3c1.7 0 3.2-1.4 3.2-3.2s-1.4-3.2-3.2-3.2z" fill="#70d6f9"/></g></g></g><g><g><g><circle cx="236.8" cy="113.4" fill="#87d147" r="3.4"/></g></g></g><g><g><g><circle cx="30.8" cy="48.4" fill="#87d147" r="3.4"/></g></g></g><g><path d="m187.974 166.755h-8.885c-1.381 0-2.5-1.119-2.5-2.5s1.119-2.5 2.5-2.5h8.885c1.381 0 2.5 1.119 2.5 2.5s-1.12 2.5-2.5 2.5z"/></g><g><path d="m44.808 231.302c-15.689 0-28.453-12.764-28.453-28.453s12.764-28.453 28.453-28.453 28.453 12.764 28.453 28.453-12.764 28.453-28.453 28.453zm0-51.906c-12.932 0-23.453 10.521-23.453 23.453s10.521 23.453 23.453 23.453 23.453-10.521 23.453-23.453-10.522-23.453-23.453-23.453z"/></g><g><path d="m195.852 231.302c-15.689 0-28.453-12.764-28.453-28.453s12.764-28.453 28.453-28.453 28.453 12.764 28.453 28.453-12.764 28.453-28.453 28.453zm0-51.906c-12.932 0-23.453 10.521-23.453 23.453s10.521 23.453 23.453 23.453 23.453-10.521 23.453-23.453-10.522-23.453-23.453-23.453z"/></g><g><path d="m17.75 205.626h-12.979c-2.631 0-4.771-2.141-4.771-4.771v-6.563c0-2.631 2.141-4.771 4.771-4.771h15.229c1.381 0 2.5 1.119 2.5 2.5s-1.119 2.5-2.5 2.5h-15v6.106h12.75c1.381 0 2.5 1.119 2.5 2.5s-1.119 2.499-2.5 2.499z"/></g><g><path d="m157.406 205.626h-85.948c-1.381 0-2.5-1.119-2.5-2.5s1.119-2.5 2.5-2.5h85.948c1.381 0 2.5 1.119 2.5 2.5s-1.119 2.5-2.5 2.5z"/></g><g><path d="m157.25 194.52h-88.208c-1.381 0-2.5-1.119-2.5-2.5s1.119-2.5 2.5-2.5h88.208c1.381 0 2.5 1.119 2.5 2.5s-1.119 2.5-2.5 2.5z"/></g><g><path d="m249.911 205.626h-27.453c-1.381 0-2.5-1.119-2.5-2.5s1.119-2.5 2.5-2.5h27.453c.601 0 1.089-.488 1.089-1.089v-3.929c0-.6-.488-1.088-1.089-1.088h-29.744c-1.381 0-2.5-1.119-2.5-2.5s1.119-2.5 2.5-2.5h29.744c3.357 0 6.089 2.731 6.089 6.088v3.929c0 3.358-2.731 6.089-6.089 6.089z"/></g><g><path d="m157.741 121.477c-20.657 0-37.463-16.806-37.463-37.463s16.806-37.463 37.463-37.463 37.464 16.806 37.464 37.463-16.807 37.463-37.464 37.463zm0-69.927c-17.9 0-32.463 14.563-32.463 32.463s14.563 32.463 32.463 32.463 32.464-14.563 32.464-32.463-14.563-32.463-32.464-32.463z"/></g><g><path d="m165.753 41.717h-16.023c-2.685 0-4.869-2.184-4.869-4.868v-7.282c0-2.684 2.185-4.868 4.869-4.868h16.022c2.685 0 4.868 2.184 4.868 4.868v7.282c.001 2.684-2.182 4.868-4.867 4.868zm-15.892-5h15.76v-7.019h-15.76z"/></g><g><g><path d="m163.279 51.25c-1.381 0-2.5-1.119-2.5-2.5v-8.875c0-1.381 1.119-2.5 2.5-2.5s2.5 1.119 2.5 2.5v8.875c0 1.38-1.119 2.5-2.5 2.5z"/></g><g><path d="m152.203 51.25c-1.381 0-2.5-1.119-2.5-2.5v-8.875c0-1.381 1.119-2.5 2.5-2.5s2.5 1.119 2.5 2.5v8.875c0 1.38-1.119 2.5-2.5 2.5z"/></g></g><g><path d="m181.033 59.478c-.44 0-.886-.116-1.29-.36-1.182-.713-1.562-2.25-.849-3.432l4.3-7.124c.123-.204.058-.47-.146-.593l-4.463-2.693c-.127-.078-.249-.071-.326-.05-.079.02-.189.069-.266.195l-4.193 6.948c-.714 1.183-2.251 1.562-3.433.848-1.182-.713-1.562-2.25-.849-3.432l4.193-6.946c.749-1.242 1.938-2.118 3.347-2.466 1.407-.349 2.869-.127 4.11.623l4.463 2.693c2.563 1.548 3.39 4.893 1.844 7.457l-4.3 7.125c-.469.776-1.295 1.207-2.142 1.207z"/></g><g><path d="m168.75 205.626h-10.764c-1.381 0-2.5-1.119-2.5-2.5v-83.063c0-1.381 1.119-2.5 2.5-2.5s2.5 1.119 2.5 2.5v80.563h8.264c1.381 0 2.5 1.119 2.5 2.5s-1.119 2.5-2.5 2.5z"/></g><g><path d="m250.168 193.688c-1.381 0-2.5-1.119-2.5-2.5v-28.03c0-5.607-2.294-11.076-6.294-15.004l-31.758-31.19c-2.311-2.27-5.366-3.519-8.604-3.519h-20.715c-1.381 0-2.5-1.119-2.5-2.5s1.119-2.5 2.5-2.5h20.715c4.557 0 8.857 1.759 12.108 4.952l31.758 31.19c4.95 4.862 7.79 11.631 7.79 18.572v28.03c0 1.38-1.119 2.499-2.5 2.499z"/></g><g><path d="m7.075 193.667c-1.381 0-2.5-1.119-2.5-2.5v-123.451c0-4.139 3.367-7.507 7.507-7.507h117.418c1.381 0 2.5 1.119 2.5 2.5s-1.119 2.5-2.5 2.5h-117.418c-1.382 0-2.507 1.125-2.507 2.507v123.452c0 1.38-1.119 2.499-2.5 2.499z"/></g><g><g><path d="m211.656 156.759h-30.53c-3.114 0-5.648-2.534-5.648-5.649v-25.91c0-3.115 2.534-5.648 5.648-5.648h19.885c1.628 0 3.164.628 4.326 1.769l21.849 21.458c.985.968.999 2.55.031 3.536-.967.985-2.549 1-3.535.032l-21.848-21.458c-.221-.217-.514-.336-.823-.336h-19.885c-.357 0-.648.291-.648.648v25.911c0 .358.291.649.648.649h30.53c1.381 0 2.5 1.119 2.5 2.5s-1.119 2.498-2.5 2.498z"/></g></g><g><path d="m227.613 163.793h-11.532c-3.532 0-6.405-2.874-6.405-6.405v-8.479c0-3.532 2.873-6.405 6.405-6.405h11.532c3.532 0 6.405 2.874 6.405 6.405v8.479c.001 3.531-2.872 6.405-6.405 6.405zm-11.532-16.289c-.762 0-1.405.644-1.405 1.405v8.479c0 .762.644 1.405 1.405 1.405h11.532c.762 0 1.405-.644 1.405-1.405v-8.479c0-.762-.644-1.405-1.405-1.405z"/></g><g><path d="m237.951 193.688c-1.381 0-2.5-1.119-2.5-2.5v-15.928c0-3.772 3.068-6.841 6.841-6.841h6.896c1.381 0 2.5 1.119 2.5 2.5s-1.119 2.5-2.5 2.5h-6.896c-1.015 0-1.841.826-1.841 1.841v15.928c0 1.38-1.119 2.5-2.5 2.5z"/></g><g><path d="m98.005 115.837h-30.948c-1.381 0-2.5-1.119-2.5-2.5v-49.504c0-1.381 1.119-2.5 2.5-2.5s2.5 1.119 2.5 2.5v47.004h25.948v-47.004c0-1.381 1.119-2.5 2.5-2.5s2.5 1.119 2.5 2.5v49.504c0 1.381-1.119 2.5-2.5 2.5z"/></g><g><path d="m83 114.875c-1.381 0-2.5-1.119-2.5-2.5v-48.542c0-1.381 1.119-2.5 2.5-2.5s2.5 1.119 2.5 2.5v48.542c0 1.38-1.119 2.5-2.5 2.5z"/></g><g><path d="m157.741 111.644c-15.235 0-27.63-12.395-27.63-27.63s12.395-27.63 27.63-27.63 27.63 12.395 27.63 27.63-12.394 27.63-27.63 27.63zm0-50.26c-12.479 0-22.63 10.152-22.63 22.63s10.151 22.63 22.63 22.63 22.63-10.152 22.63-22.63-10.151-22.63-22.63-22.63z"/></g><g><path d="m44.808 219.808c-9.352 0-16.96-7.608-16.96-16.959s7.608-16.959 16.96-16.959 16.96 7.608 16.96 16.959-7.609 16.959-16.96 16.959zm0-28.919c-6.595 0-11.96 5.365-11.96 11.959s5.365 11.959 11.96 11.959 11.96-5.365 11.96-11.959-5.366-11.959-11.96-11.959z"/></g><g><path d="m195.852 219.808c-9.352 0-16.959-7.608-16.959-16.959s7.607-16.959 16.959-16.959 16.96 7.608 16.96 16.959-7.609 16.959-16.96 16.959zm0-28.919c-6.594 0-11.959 5.365-11.959 11.959s5.365 11.959 11.959 11.959c6.595 0 11.96-5.365 11.96-11.959s-5.366-11.959-11.96-11.959z"/></g><g><path d="m181.792 86.45h-24.309c-1.381 0-2.5-1.119-2.5-2.5v-23.887c0-1.381 1.119-2.5 2.5-2.5s2.5 1.119 2.5 2.5v21.387h21.809c1.381 0 2.5 1.119 2.5 2.5s-1.119 2.5-2.5 2.5z"/></g></g></g></svg>