<svg height="512pt" viewBox="-32 0 512 512" width="512pt" xmlns="http://www.w3.org/2000/svg"><g fill="#57565c"><path d="m112 112v32c0 35.296875 28.703125 64 64 64 19.214844 0 36.257812-8.671875 48-22.113281 11.742188 13.441406 28.785156 22.113281 48 22.113281 35.296875 0 64-28.703125 64-64v-32zm0 0"/><path d="m80 350.496094v-134.128906l94.574219 44.800781v54.625zm0 0"/><path d="m368 350.496094-94.574219-34.703125v-54.625l94.574219-44.800781zm0 0"/></g><path d="m273.425781 261.167969v54.625l94.574219 34.703125v-67.054688zm0 0" fill="#2d2d30"/><path d="m174.574219 261.167969-94.574219 22.273437v67.054688l94.574219-34.703125zm0 0" fill="#2d2d30"/><path d="m448 512h-448v-170.335938l174.574219-55.199218 49.425781 30.304687 49.425781-30.304687 174.574219 55.199218zm0 0" fill="#57565c"/><path d="m336 144h-224v-96c0-26.464844 21.535156-48 48-48h18.753906c12.8125 0 24.878906 5.007812 33.933594 14.0625 6.257812 6.257812 16.367188 6.257812 22.625 0 9.054688-9.054688 21.121094-14.0625 33.933594-14.0625h18.753906c26.464844 0 48 21.535156 48 48zm0 0" fill="#c59969"/><path d="m112 80h224v64h-224zm0 0" fill="#ba8a5a"/><path d="m112 144c0 11.710938 3.390625 22.542969 8.894531 32h206.210938c5.503906-9.457031 8.894531-20.289062 8.894531-32v-32h-224zm0 0" fill="#2d2d30"/><path d="m80 112h288v32h-288zm0 0" fill="#c59969"/><path d="m80 416h32v96h-32zm0 0" fill="#2d2d30"/><path d="m336 416h32v96h-32zm0 0" fill="#2d2d30"/></svg>