<svg enable-background="new 0 0 256 256" height="512" viewBox="0 0 256 256" width="512" xmlns="http://www.w3.org/2000/svg"><g id="Layer_38"><g><g><path d="m93.69 223.87h-72.269c-1.299 0-2.351-1.053-2.351-2.351v-192.588c0-1.299 1.053-2.351 2.351-2.351h72.269z" fill="#5290db"/></g><g><path d="m93.69 26.579h74.62v197.29h-74.62z" fill="#5290db"/></g><g><path d="m240.579 223.87h-72.269v-197.291h72.269c1.299 0 2.351 1.053 2.351 2.351v192.588c0 1.299-1.053 2.352-2.351 2.352z" fill="#5290db"/></g><g><path d="m25.349 223.87v10.054h211.303v-10.054c-26.534 0-190.323 0-211.303 0z" fill="#c7d7e5"/></g><g><path d="m226.598 248.473c0 2.776 2.251 5.027 5.027 5.027s5.027-2.251 5.027-5.027v-14.55h-10.054z" fill="#edf4fc"/></g><g><path d="m125.973 248.473c0 2.776 2.251 5.027 5.027 5.027s5.027-2.251 5.027-5.027v-14.55h-10.054z" fill="#edf4fc"/></g><g><path d="m25.349 233.924v14.55c0 2.776 2.251 5.027 5.027 5.027s5.027-2.251 5.027-5.027v-14.55z" fill="#edf4fc"/></g><g><path d="m28.06 36.173h56.639v178.103h-56.639z" fill="#3a70bf"/></g><g><path d="m102.68 36.173h56.639v178.103h-56.639z" fill="#3a70bf"/></g><g><path d="m177.3 36.173h56.639v178.103h-56.639z" fill="#3a70bf"/></g><g><path d="m39.305 79.477h34.151v10.031h-34.151z" fill="#dae6f1"/></g><g><path d="m113.925 79.477h34.151v10.031h-34.151z" fill="#dae6f1"/></g><g><path d="m188.545 79.477h34.151v10.031h-34.151z" fill="#dae6f1"/></g><g><path d="m28.06 110.351v39.285c4.489-.253 8.091-4.239 8.091-9.09v-21.106c.001-4.851-3.601-8.836-8.091-9.089z" fill="#83bbf2"/></g><g><ellipse cx="47.839" cy="129.993" fill="#fcdd86" rx="4.046" ry="4.317"/></g><g><path d="m102.68 110.351v39.285c4.489-.253 8.091-4.239 8.091-9.09v-21.106c.001-4.851-3.601-8.836-8.091-9.089z" fill="#83bbf2"/></g><g><ellipse cx="122.459" cy="129.993" fill="#fcdd86" rx="4.046" ry="4.317"/></g><g><path d="m177.3 110.351v39.285c4.489-.253 8.091-4.239 8.091-9.09v-21.106c.001-4.851-3.601-8.836-8.091-9.089z" fill="#83bbf2"/></g><g><ellipse cx="197.079" cy="129.993" fill="#fcdd86" rx="4.046" ry="4.317"/></g><g><path d="m154.613 4.89h-2.07v-2.07c0-1.549-1.256-2.805-2.805-2.805s-2.805 1.256-2.805 2.805v2.07h-2.069c-1.549 0-2.805 1.256-2.805 2.805s1.256 2.805 2.805 2.805h2.069v2.07c0 1.549 1.256 2.805 2.805 2.805s2.805-1.256 2.805-2.805v-2.07h2.07c1.549 0 2.805-1.256 2.805-2.805s-1.256-2.805-2.805-2.805z" fill="#70d6f9"/></g><g><path d="m11.252 89.319c-2.756-.513-4.929-2.642-5.453-5.342-.026-.136-.216-.136-.242 0-.524 2.7-2.696 4.829-5.453 5.342-.138.026-.138.211 0 .237 2.756.513 4.929 2.642 5.453 5.342.026.136.216.136.242 0 .524-2.7 2.696-4.829 5.453-5.342.138-.025.138-.211 0-.237z" fill="#f5c84c"/></g><g><circle cx="175" cy="15" fill="#f5c84c" r="3"/></g><g><circle cx="9" cy="67" fill="#ef4460" r="3"/></g><g><circle cx="253" cy="198" fill="#87d147" r="3"/></g><g><path d="m73.451 177.231h-34.15c-1.381 0-2.5 1.119-2.5 2.5s1.119 2.5 2.5 2.5h34.15c1.381 0 2.5-1.119 2.5-2.5s-1.119-2.5-2.5-2.5z"/></g><g><path d="m73.451 186.494h-34.15c-1.381 0-2.5 1.119-2.5 2.5s1.119 2.5 2.5 2.5h34.15c1.381 0 2.5-1.119 2.5-2.5s-1.119-2.5-2.5-2.5z"/></g><g><path d="m73.451 195.757h-34.15c-1.381 0-2.5 1.119-2.5 2.5s1.119 2.5 2.5 2.5h34.15c1.381 0 2.5-1.119 2.5-2.5s-1.119-2.5-2.5-2.5z"/></g><g><path d="m73.451 167.968h-34.15c-1.381 0-2.5 1.119-2.5 2.5s1.119 2.5 2.5 2.5h34.15c1.381 0 2.5-1.119 2.5-2.5s-1.119-2.5-2.5-2.5z"/></g><g><path d="m39.301 52.096h34.15c1.381 0 2.5-1.119 2.5-2.5s-1.119-2.5-2.5-2.5h-34.15c-1.381 0-2.5 1.119-2.5 2.5s1.119 2.5 2.5 2.5z"/></g><g><path d="m39.301 61.359h34.15c1.381 0 2.5-1.119 2.5-2.5s-1.119-2.5-2.5-2.5h-34.15c-1.381 0-2.5 1.119-2.5 2.5s1.119 2.5 2.5 2.5z"/></g><g><path d="m39.301 70.622h34.15c1.381 0 2.5-1.119 2.5-2.5s-1.119-2.5-2.5-2.5h-34.15c-1.381 0-2.5 1.119-2.5 2.5s1.119 2.5 2.5 2.5z"/></g><g><path d="m148.071 177.231h-34.15c-1.381 0-2.5 1.119-2.5 2.5s1.119 2.5 2.5 2.5h34.15c1.381 0 2.5-1.119 2.5-2.5s-1.119-2.5-2.5-2.5z"/></g><g><path d="m148.071 186.494h-34.15c-1.381 0-2.5 1.119-2.5 2.5s1.119 2.5 2.5 2.5h34.15c1.381 0 2.5-1.119 2.5-2.5s-1.119-2.5-2.5-2.5z"/></g><g><path d="m148.071 195.757h-34.15c-1.381 0-2.5 1.119-2.5 2.5s1.119 2.5 2.5 2.5h34.15c1.381 0 2.5-1.119 2.5-2.5s-1.119-2.5-2.5-2.5z"/></g><g><path d="m148.071 167.968h-34.15c-1.381 0-2.5 1.119-2.5 2.5s1.119 2.5 2.5 2.5h34.15c1.381 0 2.5-1.119 2.5-2.5s-1.119-2.5-2.5-2.5z"/></g><g><path d="m113.921 52.096h34.15c1.381 0 2.5-1.119 2.5-2.5s-1.119-2.5-2.5-2.5h-34.15c-1.381 0-2.5 1.119-2.5 2.5s1.119 2.5 2.5 2.5z"/></g><g><path d="m113.921 61.359h34.15c1.381 0 2.5-1.119 2.5-2.5s-1.119-2.5-2.5-2.5h-34.15c-1.381 0-2.5 1.119-2.5 2.5s1.119 2.5 2.5 2.5z"/></g><g><path d="m113.921 70.622h34.15c1.381 0 2.5-1.119 2.5-2.5s-1.119-2.5-2.5-2.5h-34.15c-1.381 0-2.5 1.119-2.5 2.5s1.119 2.5 2.5 2.5z"/></g><g><path d="m222.691 177.231h-34.15c-1.381 0-2.5 1.119-2.5 2.5s1.119 2.5 2.5 2.5h34.15c1.381 0 2.5-1.119 2.5-2.5s-1.119-2.5-2.5-2.5z"/></g><g><path d="m222.691 186.494h-34.15c-1.381 0-2.5 1.119-2.5 2.5s1.119 2.5 2.5 2.5h34.15c1.381 0 2.5-1.119 2.5-2.5s-1.119-2.5-2.5-2.5z"/></g><g><path d="m222.691 195.757h-34.15c-1.381 0-2.5 1.119-2.5 2.5s1.119 2.5 2.5 2.5h34.15c1.381 0 2.5-1.119 2.5-2.5s-1.119-2.5-2.5-2.5z"/></g><g><path d="m222.691 167.968h-34.15c-1.381 0-2.5 1.119-2.5 2.5s1.119 2.5 2.5 2.5h34.15c1.381 0 2.5-1.119 2.5-2.5s-1.119-2.5-2.5-2.5z"/></g><g><path d="m188.541 52.096h34.15c1.381 0 2.5-1.119 2.5-2.5s-1.119-2.5-2.5-2.5h-34.15c-1.381 0-2.5 1.119-2.5 2.5s1.119 2.5 2.5 2.5z"/></g><g><path d="m188.541 61.359h34.15c1.381 0 2.5-1.119 2.5-2.5s-1.119-2.5-2.5-2.5h-34.15c-1.381 0-2.5 1.119-2.5 2.5s1.119 2.5 2.5 2.5z"/></g><g><path d="m188.541 70.622h34.15c1.381 0 2.5-1.119 2.5-2.5s-1.119-2.5-2.5-2.5h-34.15c-1.381 0-2.5 1.119-2.5 2.5s1.119 2.5 2.5 2.5z"/></g><g><path d="m231.62 256c4.15 0 7.527-3.376 7.527-7.527 0-7.953 0-14.065 0-22.104h1.428c2.675 0 4.851-2.176 4.851-4.851v-192.587c0-2.675-2.176-4.851-4.851-4.851-24.84 0-185.178 0-219.158 0-2.675 0-4.851 2.176-4.851 4.851v192.588c0 2.675 2.176 4.851 4.851 4.851h1.428v22.104c0 4.15 3.377 7.527 7.527 7.527s7.526-3.376 7.526-7.527v-12.05h85.571v12.05c0 4.15 3.376 7.527 7.526 7.527s7.526-3.376 7.526-7.527v-12.05h85.571v12.05c.002 4.15 3.378 7.526 7.528 7.526zm2.528-7.527c0 1.393-1.134 2.527-2.527 2.527s-2.526-1.134-2.526-2.527v-12.05h5.054v12.05zm-63.342-219.393h69.62v192.29h-69.62zm-74.619 0h69.619v192.29h-69.619zm-74.621 192.29v-192.29h69.62v192.29zm11.333 27.103c0 1.393-1.134 2.527-2.526 2.527-1.394 0-2.527-1.134-2.527-2.527v-12.05h5.054v12.05zm100.624 0c0 1.393-1.134 2.527-2.526 2.527s-2.526-1.134-2.526-2.527v-12.05h5.053v12.05zm-105.678-17.05v-5.053h206.303v5.053c-72.596 0-162.127 0-206.303 0z"/></g><g><path d="m84.695 33.673h-56.638c-1.381 0-2.5 1.119-2.5 2.5v178.104c0 1.381 1.119 2.5 2.5 2.5h56.639c1.381 0 2.5-1.119 2.5-2.5v-178.104c-.001-1.381-1.12-2.5-2.501-2.5zm-54.138 80.004c1.851 1.133 3.091 3.295 3.091 5.763v21.105c0 2.468-1.24 4.63-3.091 5.763zm51.638 98.099h-51.638v-60.058c4.686-1.363 8.091-5.865 8.091-11.173v-21.105c0-5.308-3.405-9.81-8.091-11.173v-69.594h51.639v173.103z"/></g><g><path d="m159.316 33.673h-56.639c-1.381 0-2.5 1.119-2.5 2.5v178.104c0 1.381 1.119 2.5 2.5 2.5h56.639c1.381 0 2.5-1.119 2.5-2.5v-178.104c0-1.381-1.12-2.5-2.5-2.5zm-54.139 80.004c1.851 1.133 3.091 3.295 3.091 5.763v21.105c0 2.468-1.24 4.63-3.091 5.763zm51.639 98.099h-51.639v-60.058c4.686-1.363 8.091-5.865 8.091-11.173v-21.105c0-5.308-3.405-9.81-8.091-11.173v-69.594h51.639z"/></g><g><path d="m233.936 33.673h-56.639c-1.381 0-2.5 1.119-2.5 2.5v178.104c0 1.381 1.119 2.5 2.5 2.5h56.639c1.381 0 2.5-1.119 2.5-2.5v-178.104c0-1.381-1.12-2.5-2.5-2.5zm-54.139 80.004c1.851 1.133 3.091 3.295 3.091 5.763v21.105c0 2.468-1.24 4.63-3.091 5.763zm51.639 98.099h-51.639v-60.058c4.686-1.363 8.091-5.865 8.091-11.173v-21.105c0-5.308-3.405-9.81-8.091-11.173v-69.594h51.639z"/></g><g><path d="m39.301 92.008h34.15c1.381 0 2.5-1.119 2.5-2.5v-10.031c0-1.381-1.119-2.5-2.5-2.5h-34.15c-1.381 0-2.5 1.119-2.5 2.5v10.031c0 1.381 1.119 2.5 2.5 2.5zm2.5-10.031h29.15v5.031h-29.15z"/></g><g><path d="m113.921 92.008h34.15c1.381 0 2.5-1.119 2.5-2.5v-10.031c0-1.381-1.119-2.5-2.5-2.5h-34.15c-1.381 0-2.5 1.119-2.5 2.5v10.031c0 1.381 1.119 2.5 2.5 2.5zm2.5-10.031h29.15v5.031h-29.15z"/></g><g><path d="m188.541 92.008h34.15c1.381 0 2.5-1.119 2.5-2.5v-10.031c0-1.381-1.119-2.5-2.5-2.5h-34.15c-1.381 0-2.5 1.119-2.5 2.5v10.031c0 1.381 1.119 2.5 2.5 2.5zm2.5-10.031h29.15v5.031h-29.15z"/></g><g><path d="m54.381 129.993c0-3.759-2.937-6.817-6.546-6.817s-6.546 3.058-6.546 6.817 2.937 6.817 6.546 6.817 6.546-3.058 6.546-6.817zm-8.092 0c0-1.002.693-1.817 1.546-1.817s1.546.815 1.546 1.817-.693 1.817-1.546 1.817-1.546-.815-1.546-1.817z"/></g><g><path d="m129.001 129.993c0-3.759-2.937-6.817-6.546-6.817s-6.546 3.058-6.546 6.817 2.937 6.817 6.546 6.817 6.546-3.058 6.546-6.817zm-8.092 0c0-1.002.693-1.817 1.546-1.817s1.546.815 1.546 1.817-.693 1.817-1.546 1.817-1.546-.815-1.546-1.817z"/></g><g><path d="m203.621 129.993c0-3.759-2.937-6.817-6.546-6.817s-6.546 3.058-6.546 6.817 2.937 6.817 6.546 6.817 6.546-3.058 6.546-6.817zm-8.092 0c0-1.002.693-1.817 1.546-1.817s1.546.815 1.546 1.817-.693 1.817-1.546 1.817-1.546-.815-1.546-1.817z"/></g></g></g></svg>