<?xml version="1.0" encoding="iso-8859-1"?>
<!-- Generator: Adobe Illustrator 19.0.0, SVG Export Plug-In . SVG Version: 6.00 Build 0)  -->
<svg version="1.1" id="Capa_1" xmlns="http://www.w3.org/2000/svg" xmlns:xlink="http://www.w3.org/1999/xlink" x="0px" y="0px"
	 viewBox="0 0 512 512" style="enable-background:new 0 0 512 512;" xml:space="preserve">
<path style="fill:#34ABE0;" d="M512,256c0,21.044-2.539,41.503-7.335,61.074c-3.459,14.158-8.098,27.847-13.814,40.97
	c-2.759,6.353-5.768,12.56-9.017,18.62c-6.489,12.121-13.918,23.656-22.215,34.513c-27.491,36.028-64.345,64.543-106.914,81.92
	c-4.545,1.86-9.143,3.584-13.814,5.183c-4.545,1.557-9.164,2.988-13.824,4.294C303.104,508.719,279.939,512,256,512
	s-47.104-3.281-69.078-9.435c-4.66-1.296-9.268-2.727-13.814-4.284c-4.671-1.599-9.268-3.323-13.814-5.183
	C97.468,467.864,47.731,419.15,21.138,358.024c-5.716-13.124-10.355-26.833-13.814-40.991C2.539,297.472,0,277.034,0,256
	s2.539-41.472,7.325-61.032c3.459-14.158,8.098-27.867,13.814-40.991c10.762-24.743,25.318-47.459,42.956-67.396
	c1.003-1.139,2.017-2.278,3.051-3.396c4.357-4.775,8.913-9.394,13.636-13.814C90.958,59.8,101.93,51.064,113.57,43.248
	C154.29,15.935,203.285,0,256,0c27.335,0,53.656,4.284,78.357,12.215c33.374,10.721,63.76,28.097,89.59,50.584
	c2.466,2.142,4.89,4.336,7.272,6.572c4.723,4.42,9.279,9.038,13.636,13.814c18.996,20.741,34.617,44.617,45.996,70.771
	c5.716,13.124,10.355,26.812,13.814,40.97C509.461,214.497,512,234.956,512,256z"/>
<path style="fill:#78CAEF;" d="M225.656,97.416c0,5.977-4.848,10.836-10.836,10.836H111.898c-2.988,0-5.695-1.212-7.659-3.176
	c-1.954-1.964-3.166-4.671-3.166-7.659c0-5.987-4.859-10.836-10.836-10.836H64.094c1.003-1.139,2.017-2.278,3.051-3.396
	c4.357-4.775,8.913-9.394,13.636-13.814C90.958,59.8,101.93,51.064,113.57,43.248h84.396c2.988,0,5.705,1.212,7.659,3.176
	c1.964,1.954,3.176,4.66,3.176,7.659c0,5.977-4.848,10.825-10.836,10.825h-34.91c-5.987,0-10.836,4.859-10.836,10.836
	c0,5.987,4.848,10.836,10.836,10.836h51.764c2.999,0,5.705,1.212,7.659,3.176C224.444,91.711,225.656,94.427,225.656,97.416z"/>
<path style="fill:#E28D40;" d="M338.892,87.124V498.28c-4.545,1.557-9.164,2.988-13.824,4.294C303.104,508.719,279.939,512,256,512
	s-47.104-3.281-69.078-9.435c-4.66-1.296-9.268-2.727-13.814-4.284V87.124c0-9.812,7.952-17.753,17.753-17.753h130.267
	C330.94,69.371,338.892,77.312,338.892,87.124z"/>
<path style="fill:#F4A14E;" d="M325.068,83.184v419.391C303.104,508.719,279.939,512,256,512s-47.104-3.281-69.078-9.435V83.184
	H325.068z"/>
<g>
	<path style="fill:#5C5E70;" d="M294.436,139.71h-74.21c-4.851,0-8.783-3.933-8.783-8.783v-3.157c0-4.851,3.933-8.783,8.783-8.783
		h74.21c4.851,0,8.783,3.933,8.783,8.783v3.157C303.219,135.777,299.286,139.71,294.436,139.71z"/>
	<path style="fill:#5C5E70;" d="M294.436,176.223h-74.21c-4.851,0-8.783-3.933-8.783-8.783v-3.157c0-4.851,3.933-8.783,8.783-8.783
		h74.21c4.851,0,8.783,3.933,8.783,8.783v3.157C303.219,172.291,299.286,176.223,294.436,176.223z"/>
	<path style="fill:#5C5E70;" d="M294.436,212.737h-74.21c-4.851,0-8.783-3.933-8.783-8.783v-3.157c0-4.851,3.933-8.783,8.783-8.783
		h74.21c4.851,0,8.783,3.933,8.783,8.783v3.157C303.219,208.804,299.286,212.737,294.436,212.737z"/>
</g>
<circle style="fill:#FF525D;" cx="210.453" cy="324.89" r="12.829"/>
<path style="fill:#F9AF6B;" d="M308.813,458.157h-9.215c-3.996,0-7.235-3.239-7.235-7.235V236.748c0-3.996,3.239-7.235,7.235-7.235
	h9.215c3.996,0,7.235,3.239,7.235,7.235v214.175C316.048,454.918,312.809,458.157,308.813,458.157z"/>
<path style="fill:#E28D40;" d="M504.665,87.124v229.951c-3.459,14.158-8.098,27.847-13.814,40.97
	c-2.759,6.353-5.768,12.56-9.017,18.62c-6.489,12.121-13.918,23.656-22.215,34.513c-27.491,36.028-64.345,64.543-106.914,81.92
	c-4.545,1.86-9.143,3.584-13.814,5.183V87.124c0-9.812,7.952-17.753,17.753-17.753h130.267
	C496.713,69.371,504.665,77.312,504.665,87.124z"/>
<path style="fill:#F4A14E;" d="M490.851,83.184v274.86c-2.759,6.353-5.768,12.56-9.017,18.62
	c-6.489,12.121-13.918,23.656-22.215,34.513c-27.491,36.028-64.345,64.543-106.914,81.92V83.184H490.851z"/>
<g>
	<path style="fill:#5C5E70;" d="M460.217,139.71h-74.21c-4.851,0-8.783-3.933-8.783-8.783v-3.157c0-4.851,3.933-8.783,8.783-8.783
		h74.21c4.851,0,8.783,3.933,8.783,8.783v3.157C469,135.777,465.068,139.71,460.217,139.71z"/>
	<path style="fill:#5C5E70;" d="M460.217,176.223h-74.21c-4.851,0-8.783-3.933-8.783-8.783v-3.157c0-4.851,3.933-8.783,8.783-8.783
		h74.21c4.851,0,8.783,3.933,8.783,8.783v3.157C469,172.291,465.068,176.223,460.217,176.223z"/>
	<path style="fill:#5C5E70;" d="M460.217,212.737h-74.21c-4.851,0-8.783-3.933-8.783-8.783v-3.157c0-4.851,3.933-8.783,8.783-8.783
		h74.21c4.851,0,8.783,3.933,8.783,8.783v3.157C469,208.804,465.068,212.737,460.217,212.737z"/>
</g>
<circle style="fill:#FF525D;" cx="376.236" cy="324.89" r="12.829"/>
<path style="fill:#F9AF6B;" d="M481.834,236.743v139.922c-6.489,12.121-13.918,23.656-22.215,34.513
	c-0.919-1.212-1.473-2.717-1.473-4.357V236.743c0-3.992,3.239-7.231,7.231-7.231h9.216
	C478.595,229.512,481.834,232.751,481.834,236.743z"/>
<path style="fill:#E28D40;" d="M173.108,87.124V498.28c-4.671-1.599-9.268-3.323-13.814-5.183
	C97.468,467.864,47.731,419.15,21.138,358.024c-5.716-13.124-10.355-26.833-13.814-40.991V87.124
	c0-9.812,7.952-17.753,17.763-17.753h130.257C165.157,69.371,173.108,77.312,173.108,87.124z"/>
<path style="fill:#F4A14E;" d="M159.295,83.184v409.913C97.468,467.864,47.731,419.15,21.138,358.024V83.184H159.295z"/>
<g>
	<path style="fill:#5C5E70;" d="M128.654,139.71h-74.21c-4.851,0-8.783-3.933-8.783-8.783v-3.157c0-4.851,3.933-8.783,8.783-8.783
		h74.21c4.851,0,8.783,3.933,8.783,8.783v3.157C137.438,135.777,133.505,139.71,128.654,139.71z"/>
	<path style="fill:#5C5E70;" d="M128.654,176.223h-74.21c-4.851,0-8.783-3.933-8.783-8.783v-3.157c0-4.851,3.933-8.783,8.783-8.783
		h74.21c4.851,0,8.783,3.933,8.783,8.783v3.157C137.438,172.291,133.505,176.223,128.654,176.223z"/>
	<path style="fill:#5C5E70;" d="M128.654,212.737h-74.21c-4.851,0-8.783-3.933-8.783-8.783v-3.157c0-4.851,3.933-8.783,8.783-8.783
		h74.21c4.851,0,8.783,3.933,8.783,8.783v3.157C137.438,208.804,133.505,212.737,128.654,212.737z"/>
</g>
<circle style="fill:#FF525D;" cx="44.674" cy="324.89" r="12.829"/>
<path style="fill:#F9AF6B;" d="M143.032,458.157h-9.215c-3.996,0-7.235-3.239-7.235-7.235V236.748c0-3.996,3.239-7.235,7.235-7.235
	h9.215c3.996,0,7.235,3.239,7.235,7.235v214.175C150.267,454.918,147.028,458.157,143.032,458.157z"/>
<path style="fill:#78CAEF;" d="M423.946,62.798h-61.283c-2.988,0-5.705-1.212-7.659-3.176c-1.964-1.954-3.176-4.671-3.176-7.659
	c0-5.987-4.848-10.836-10.825-10.836h-51.764c-2.999,0-5.705-1.212-7.659-3.176c-1.964-1.954-3.176-4.671-3.176-7.659
	c0-5.977,4.848-10.825,10.836-10.825h34.91c2.988,0,5.695-1.212,7.649-3.176c1.139-1.139,2.027-2.529,2.56-4.075
	C367.731,22.936,398.117,40.312,423.946,62.798z"/>
<g>
</g>
<g>
</g>
<g>
</g>
<g>
</g>
<g>
</g>
<g>
</g>
<g>
</g>
<g>
</g>
<g>
</g>
<g>
</g>
<g>
</g>
<g>
</g>
<g>
</g>
<g>
</g>
<g>
</g>
</svg>
